<?xml version="1.0" encoding="UTF-8" standalone="no"?>
<svg width="51px" height="51px" viewBox="0 0 51 51" version="1.1" xmlns="http://www.w3.org/2000/svg" xmlns:xlink="http://www.w3.org/1999/xlink" xmlns:sketch="http://www.bohemiancoding.com/sketch/ns">
    <!-- Generator: Sketch 3.3 (11970) - http://www.bohemiancoding.com/sketch -->
    <title>SudokuIcon</title>
    <desc>Created with Sketch.</desc>
    <defs></defs>
    <g id="Page-1" stroke="none" stroke-width="1" fill="none" fill-rule="evenodd" sketch:type="MSPage">
        <g id="Artboard-8" sketch:type="MSArtboardGroup" transform="translate(-450.000000, -216.000000)">
            <g id="SudokuIcon" sketch:type="MSLayerGroup" transform="translate(450.000000, 216.000000)">
                <path d="M34.016,0.5 L0.5,0.5 L0.5,50.5 L50.5,50.5 L50.5,0.5 L34.016,0.5 Z M17.535,1.051 L33.469,1.051 L33.469,16.984 L17.535,16.984 L17.535,1.051 Z M33.469,33.469 L17.535,33.469 L17.535,17.535 L33.469,17.535 L33.469,33.469 Z M1.051,1.051 L16.984,1.051 L16.984,16.984 L1.051,16.984 L1.051,1.051 Z M1.051,17.535 L16.984,17.535 L16.984,33.469 L1.051,33.469 L1.051,17.535 Z M16.984,49.953 L1.051,49.953 L1.051,34.016 L16.984,34.016 L16.984,49.953 Z M33.469,49.953 L17.535,49.953 L17.535,34.016 L33.469,34.016 L33.469,49.953 Z M49.953,49.953 L34.016,49.953 L34.016,34.016 L49.949,34.016 L49.949,49.953 L49.953,49.953 Z M49.953,33.469 L34.016,33.469 L34.016,17.535 L49.949,17.535 L49.949,33.469 L49.953,33.469 Z M34.016,16.984 L34.016,1.051 L49.949,1.051 L49.949,16.984 L34.016,16.984 Z" id="Fill-3" fill="#000000" sketch:type="MSShapeGroup"></path>
                <path d="M44.8417969,29 L40.03125,29 L40.03125,28.0507812 L42,28.0507812 L42,22.4609375 L40.1660156,23.4570312 L39.7910156,22.5898438 L42.2285156,21.3066406 L43.1308594,21.3066406 L43.1308594,28.0507812 L44.8417969,28.0507812 L44.8417969,29 Z" id="1" fill="#383838" sketch:type="MSShapeGroup"></path>
                <path d="M11.8652344,8.74023438 C11.8652344,9.48633186 11.7753915,10.127927 11.5957031,10.6650391 C11.4160147,11.2021511 11.1503924,11.643553 10.7988281,11.9892578 C10.4472639,12.3349627 10.0117213,12.5898429 9.4921875,12.7539062 C8.97265365,12.9179696 8.37305027,13 7.69335938,13 L7.0546875,13 L7.0546875,12.109375 L7.76367188,12.109375 C8.26758064,12.109375 8.70312316,12.0585943 9.0703125,11.9570312 C9.43750184,11.8554682 9.74316284,11.7060557 9.98730469,11.5087891 C10.2314465,11.3115225 10.4179681,11.0712905 10.546875,10.7880859 C10.6757819,10.5048814 10.7558592,10.1816424 10.7871094,9.81835938 L10.8105469,9.578125 C10.5644519,9.72265697 10.2812516,9.83886675 9.9609375,9.92675781 C9.6406234,10.0146489 9.29297063,10.0585938 8.91796875,10.0585938 C8.53124807,10.0585938 8.19140771,10.0019537 7.8984375,9.88867188 C7.60546729,9.77539006 7.36230565,9.61718852 7.16894531,9.4140625 C6.97558497,9.21093648 6.83007861,8.96972796 6.73242188,8.69042969 C6.63476514,8.41113142 6.5859375,8.10742352 6.5859375,7.77929688 C6.5859375,7.42382635 6.65038998,7.09179842 6.77929688,6.78320312 C6.90820377,6.47460783 7.08886603,6.20605583 7.32128906,5.97753906 C7.5537121,5.74902229 7.83202963,5.56836004 8.15625,5.43554688 C8.48047037,5.30273371 8.83788867,5.23632812 9.22851562,5.23632812 C9.60742377,5.23632812 9.9580062,5.2988275 10.2802734,5.42382812 C10.6025407,5.54882875 10.8808582,5.75097517 11.1152344,6.03027344 C11.3496105,6.30957171 11.5332025,6.67187277 11.6660156,7.1171875 C11.7988288,7.56250223 11.8652344,8.10351244 11.8652344,8.74023438 L11.8652344,8.74023438 Z M9.18164062,6.07421875 C8.96288953,6.07421875 8.76074312,6.1103512 8.57519531,6.18261719 C8.38964751,6.25488317 8.22949286,6.36035087 8.09472656,6.49902344 C7.95996026,6.63769601 7.85351602,6.80859273 7.77539062,7.01171875 C7.69726523,7.21484477 7.65820312,7.44726432 7.65820312,7.70898438 C7.65820312,7.94726682 7.68652315,8.16015531 7.74316406,8.34765625 C7.79980497,8.53515719 7.88769472,8.69433528 8.00683594,8.82519531 C8.12597716,8.95605534 8.27929594,9.05664027 8.46679688,9.12695312 C8.65429781,9.19726598 8.87695184,9.23242188 9.13476562,9.23242188 C9.2792976,9.23242188 9.42871017,9.21875014 9.58300781,9.19140625 C9.73730546,9.16406236 9.88769458,9.12695336 10.0341797,9.08007812 C10.1806648,9.03320289 10.3203118,8.97851594 10.453125,8.91601562 C10.5859382,8.85351531 10.7050776,8.78710973 10.8105469,8.71679688 C10.8105469,8.21288811 10.7734379,7.79199388 10.6992188,7.45410156 C10.6249996,7.11620925 10.5175788,6.84472759 10.3769531,6.63964844 C10.2363274,6.43456929 10.0654307,6.28906293 9.86425781,6.203125 C9.66308493,6.11718707 9.43554814,6.07421875 9.18164062,6.07421875 L9.18164062,6.07421875 Z" id="9" fill="#383838" sketch:type="MSShapeGroup"></path>
            </g>
        </g>
    </g>
</svg>