<?xml version="1.0" standalone="no"?>
<!DOCTYPE svg PUBLIC "-//W3C//DTD SVG 20010904//EN"
 "http://www.w3.org/TR/2001/REC-SVG-20010904/DTD/svg10.dtd">
<svg version="1.0" xmlns="http://www.w3.org/2000/svg"
 width="1024.000000pt" height="1024.000000pt" viewBox="0 0 1024.000000 1024.000000"
 preserveAspectRatio="xMidYMid meet">
<metadata>
Created by potrace 1.11, written by Peter Selinger 2001-2013
</metadata>
<g transform="translate(0.000000,1024.000000) scale(0.100000,-0.100000)"
fill="#000000" stroke="none">
<path d="M3707 6133 c-4 -1438 0 -1359 -66 -1562 -66 -208 -196 -359 -359
-421 -202 -77 -498 -27 -690 117 -18 14 -35 23 -37 22 -2 -2 -31 -67 -65 -143
l-61 -139 28 -29 c46 -49 146 -116 235 -157 141 -66 294 -89 478 -71 159 15
256 42 386 105 344 170 534 509 574 1027 5 69 10 660 10 1341 l0 1217 -215 0
-214 0 -4 -1307z"/>
<path d="M5110 5621 l0 -1821 215 0 215 0 0 815 0 815 383 0 c210 0 421 -5
467 -10 242 -30 367 -121 480 -354 36 -72 144 -352 266 -686 113 -311 209
-568 213 -573 4 -4 111 -6 237 -5 l230 3 -118 290 c-66 160 -157 389 -204 510
-152 395 -166 428 -230 555 -109 214 -201 315 -357 391 l-77 37 82 27 c104 34
244 104 323 160 258 184 390 487 356 818 -13 125 -22 167 -53 247 -127 325
-418 501 -956 576 -95 13 -242 17 -794 21 l-678 5 0 -1821z m1455 1425 c297
-49 466 -164 542 -372 19 -54 26 -95 30 -189 10 -207 -39 -339 -170 -462 -116
-108 -266 -170 -492 -204 -112 -16 -187 -19 -532 -19 l-403 0 0 636 0 636 463
-5 c365 -3 483 -8 562 -21z"/>
</g>
</svg>
