<?xml version="1.0" encoding="UTF-8" standalone="no"?>
<svg width="101px" height="76px" viewBox="0 0 101 76" version="1.1" xmlns="http://www.w3.org/2000/svg" xmlns:xlink="http://www.w3.org/1999/xlink" xmlns:sketch="http://www.bohemiancoding.com/sketch/ns">
    <!-- Generator: Sketch 3.3 (11970) - http://www.bohemiancoding.com/sketch -->
    <title>Imported Layers</title>
    <desc>Created with Sketch.</desc>
    <defs></defs>
    <g id="Page-1" stroke="none" stroke-width="1" fill="none" fill-rule="evenodd" sketch:type="MSPage">
        <g id="Port" sketch:type="MSArtboardGroup" transform="translate(-166.000000, -4485.000000)" fill="#000000">
            <g id="Contact" sketch:type="MSLayerGroup" transform="translate(0.000000, 4384.000000)">
                <g id="Social" transform="translate(166.000000, 101.000000)" sketch:type="MSShapeGroup">
                    <g id="Email">
                        <path d="M98.1681523,2.69706545 C96.7423952,1.2652477 94.73482,0.365247972 92.5454267,0.365247972 L8.45454305,0.365247972 C6.26514977,0.365247972 4.25757462,1.2652477 2.83181748,2.69706545 C1.39999973,4.12282259 0.5,6.13039775 0.5,8.31979102 L0.5,67.4106823 C0.5,69.6000755 1.39999973,71.6076507 2.83181748,73.0334078 C4.25757462,74.4652256 6.26514977,75.3652253 8.45454305,75.3652253 L92.5454267,75.3652253 C94.73482,75.3652253 96.7423952,74.4652256 98.1681523,73.0334078 C99.5999701,71.6076507 100.50603,69.6000755 100.49997,67.4106823 L100.49997,8.31979102 C100.49997,6.13039775 99.5999701,4.12282259 98.1681523,2.69706545 L98.1681523,2.69706545 Z M93.68179,63.356138 L66.6817982,38.4334183 L93.68179,13.5106985 L93.68179,63.356138 Z M8.45454305,7.18342773 L92.5454267,7.18342773 C92.8530024,7.18342773 93.1257296,7.30160951 93.3439113,7.52130642 C93.3681538,7.54403368 93.3742144,7.5682761 93.3923962,7.59251852 L55.9393772,42.162205 C54.7727109,43.245538 53.139378,43.8319015 51.4772573,43.8319015 C49.8727124,43.8319015 48.3105916,43.2864471 47.1560465,42.2743262 L7.62575542,7.56221549 C7.63787663,7.55009429 7.64393724,7.53191247 7.65605844,7.52130642 C7.8742402,7.30160951 8.14696739,7.18342773 8.45454305,7.18342773 L8.45454305,7.18342773 Z M7.31817976,63.5288653 L7.31817976,13.3379713 L35.8984742,38.4334183 L7.31817976,63.5288653 Z M8.48939153,68.5470456 L39.3439277,41.4576598 L44.1605929,45.6894767 C46.2393801,47.5061428 48.8727127,48.3773547 51.4818028,48.3773547 C54.1878626,48.3773547 56.9211951,47.4409913 59.0227096,45.5061434 L63.3317992,41.5288719 L92.5923964,68.5409849 C92.5757298,68.5349243 92.5636085,68.5470456 92.5454267,68.5470456 L8.48939153,68.5470456 Z" id="Imported-Layers"></path>
                    </g>
                </g>
            </g>
        </g>
    </g>
</svg>