<?xml version="1.0" encoding="UTF-8" standalone="no"?>
<svg width="100px" height="97px" viewBox="0 0 100 97" version="1.1" xmlns="http://www.w3.org/2000/svg" xmlns:xlink="http://www.w3.org/1999/xlink" xmlns:sketch="http://www.bohemiancoding.com/sketch/ns">
    <!-- Generator: Sketch 3.3 (11970) - http://www.bohemiancoding.com/sketch -->
    <title>Github Logo</title>
    <desc>Created with Sketch.</desc>
    <defs></defs>
    <g id="Page-1" stroke="none" stroke-width="1" fill="none" fill-rule="evenodd" sketch:type="MSPage">
        <g id="Port" sketch:type="MSArtboardGroup" transform="translate(-166.000000, -4611.000000)" fill="#181616">
            <g id="Contact" sketch:type="MSLayerGroup" transform="translate(0.000000, 4384.000000)">
                <g id="Social" transform="translate(166.000000, 101.000000)" sketch:type="MSShapeGroup">
                    <g id="Github" transform="translate(0.000000, 126.000000)">
                        <g id="Github-Logo">
                            <g>
                                <path d="M50,0.0844262295 C22.6663934,0.0844262295 0.501639344,22.2442623 0.501639344,49.5827869 C0.501639344,71.4532787 14.6844262,90.0065574 34.3516393,96.552459 C36.8245902,97.0114754 37.7327869,95.4786885 37.7327869,94.1713115 C37.7327869,92.9909836 37.6868852,89.0918033 37.6655738,84.9557377 C23.895082,87.95 20.9893443,79.1155738 20.9893443,79.1155738 C18.7377049,73.3942623 15.4934426,71.8729508 15.4934426,71.8729508 C11.0016393,68.8008197 15.8319672,68.8647541 15.8319672,68.8647541 C20.8016393,69.2131148 23.4196721,73.9655738 23.4196721,73.9655738 C27.8344262,81.5311475 34.9991803,79.3442623 37.8237705,78.0803279 C38.2680328,74.8811475 39.5508197,72.6967213 40.9663934,71.4606557 C29.9721311,70.2106557 18.4139344,65.9655738 18.4139344,46.9991803 C18.4139344,41.595082 20.3483607,37.1795082 23.5147541,33.7122951 C23,32.4663934 21.3057377,27.4319672 23.9934426,20.6139344 C23.9934426,20.6139344 28.1491803,19.2836066 37.6081967,25.6877049 C41.557377,24.5901639 45.792623,24.0385246 50,24.0196721 C54.204918,24.0385246 58.442623,24.5885246 62.3991803,25.6860656 C71.8467213,19.2819672 75.997541,20.6122951 75.997541,20.6122951 C78.6918033,27.4295082 76.997541,32.4647541 76.4836066,33.7106557 C79.657377,37.1778689 81.5778689,41.5934426 81.5778689,46.997541 C81.5778689,66.0090164 69.9983607,70.1942623 58.9762295,71.4204918 C60.752459,72.9565574 62.3344262,75.9696721 62.3344262,80.5868852 C62.3344262,87.2098361 62.2770492,92.5401639 62.2770492,94.1704918 C62.2770492,95.4877049 63.1688525,97.0311475 65.6770492,96.545082 C85.3327869,89.992623 99.4991803,71.445082 99.4991803,49.5827869 C99.4983607,22.2459016 77.3360656,0.0852459016 50,0.0852459016 L50,0.0844262295 Z" id="Shape"></path>
                                <path d="M19.2491803,71.152459 C19.1401639,71.3983607 18.7532787,71.4721311 18.4008197,71.3040984 C18.0401639,71.1434426 17.8393443,70.8081967 17.9557377,70.5614754 C18.0622951,70.307377 18.45,70.2377049 18.8081967,70.407377 C19.1688525,70.5688525 19.3737705,70.907377 19.2483607,71.1532787 L19.2491803,71.152459 Z M21.2540984,73.3893443 C21.0188525,73.6081967 20.557377,73.5065574 20.2442623,73.1598361 C19.9196721,72.8155738 19.8590164,72.3540984 20.0991803,72.1319672 C20.3434426,71.9139344 20.7909836,72.0172131 21.1155738,72.3614754 C21.4385246,72.7106557 21.502459,73.1680328 21.254918,73.3901639 L21.2540984,73.3893443 Z M23.2065574,76.2393443 C22.9032787,76.4508197 22.4065574,76.2532787 22.1,75.8131148 C21.7967213,75.3721311 21.7967213,74.8434426 22.1081967,74.6327869 C22.4139344,74.4213115 22.9032787,74.6122951 23.2147541,75.0483607 C23.5163934,75.495082 23.5163934,76.0237705 23.2065574,76.2385246 L23.2065574,76.2393443 Z M25.8795082,78.9942623 C25.6090164,79.2934426 25.0303279,79.2131148 24.607377,78.8057377 C24.1754098,78.4065574 24.054918,77.8385246 24.3262295,77.5401639 C24.6016393,77.2401639 25.1827869,77.3237705 25.6081967,77.7286885 C26.0401639,78.1270492 26.1704918,78.6959016 25.8811475,78.9934426 L25.8795082,78.9942623 Z M29.5680328,80.5934426 C29.447541,80.9811475 28.8918033,81.157377 28.3303279,80.9918033 C27.7704918,80.8221311 27.4040984,80.3688525 27.5188525,79.9770492 C27.6336066,79.5860656 28.1934426,79.4032787 28.7581967,79.5795082 C29.3180328,79.7483607 29.6844262,80.1991803 29.5680328,80.5934426 L29.5680328,80.5934426 Z M33.6196721,80.8893443 C33.6336066,81.297541 33.1581967,81.6352459 32.5704918,81.6434426 C31.9778689,81.657377 31.4983607,81.3262295 31.492623,80.9245902 C31.492623,80.5122951 31.9581967,80.1786885 32.55,80.1672131 C33.1377049,80.1565574 33.6204918,80.4844262 33.6204918,80.8885246 L33.6196721,80.8893443 Z M37.3885246,80.2483607 C37.4590164,80.6459016 37.05,81.054918 36.4655738,81.1639344 C35.8918033,81.2704918 35.3590164,81.0229508 35.2852459,80.6286885 C35.2147541,80.2204918 35.6311475,79.8114754 36.204918,79.7057377 C36.7901639,79.604918 37.3147541,79.845082 37.3885246,80.2491803 L37.3885246,80.2483607 Z" id="Shape"></path>
                            </g>
                        </g>
                    </g>
                </g>
            </g>
        </g>
    </g>
</svg>