<?xml version="1.0" encoding="UTF-8" standalone="no"?>
<svg width="100px" height="101px" viewBox="0 0 100 101" version="1.1" xmlns="http://www.w3.org/2000/svg" xmlns:xlink="http://www.w3.org/1999/xlink" xmlns:sketch="http://www.bohemiancoding.com/sketch/ns">
    <!-- Generator: Sketch 3.3 (11970) - http://www.bohemiancoding.com/sketch -->
    <title>LinkedIn Logo</title>
    <desc>Created with Sketch.</desc>
    <defs></defs>
    <g id="Page-1" stroke="none" stroke-width="1" fill="none" fill-rule="evenodd" sketch:type="MSPage">
        <g id="Port" sketch:type="MSArtboardGroup" transform="translate(-166.000000, -4893.000000)" fill="#000000">
            <g id="Contact" sketch:type="MSLayerGroup" transform="translate(0.000000, 4384.000000)">
                <g id="Social" transform="translate(166.000000, 101.000000)" sketch:type="MSShapeGroup">
                    <g id="LinkedIn" transform="translate(0.000000, 408.000000)">
                        <g id="LinkedIn-Logo" transform="translate(0.000000, 0.583001)">
                            <path d="M92.4257541,0 L7.37401392,0 C3.30139211,0 0.000464037123,3.20023202 0.000464037123,7.15011601 L0.000464037123,92.6422274 C0.000464037123,96.5923434 3.3025522,99.7953596 7.37401392,99.7953596 L92.4257541,99.7953596 C96.4974478,99.7953596 99.7946636,96.5902552 99.7946636,92.6422274 L99.7946636,7.15011601 C99.7946636,3.20139211 96.4974478,0 92.4257541,0 L92.4257541,0 Z M30.2552204,83.5354988 L15.1770302,83.5354988 L15.1770302,38.4791183 L30.2552204,38.4791183 L30.2552204,83.5354988 L30.2552204,83.5354988 Z M22.7176334,32.3236659 L22.6162413,32.3236659 C17.5598608,32.3236659 14.2821346,28.8656613 14.2821346,24.5364269 C14.2821346,20.1199536 17.6561485,16.7556845 22.812761,16.7556845 C27.9698376,16.7556845 31.1419954,20.1190255 31.2422274,24.5364269 C31.2422274,28.8665893 27.9709977,32.3236659 22.7176334,32.3236659 L22.7176334,32.3236659 Z M84.6076566,83.5354988 L69.5343387,83.5354988 L69.5343387,59.4287703 C69.5343387,53.3714617 67.350348,49.2382831 61.8993039,49.2382831 C57.7292343,49.2382831 55.2538283,52.0266821 54.1668213,54.7187935 C53.7640371,55.6802784 53.6642691,57.025058 53.6642691,58.3679814 L53.6642691,83.5345708 L38.5937355,83.5345708 C38.5937355,83.5345708 38.7909513,42.7041763 38.5937355,38.4784223 L53.6665893,38.4784223 L53.6665893,44.8661253 C55.6675174,41.7967517 59.2431555,37.4183295 67.2475638,37.4183295 C77.1686775,37.4183295 84.6076566,43.8542923 84.6076566,57.7 L84.6076566,83.5354988 L84.6076566,83.5354988 Z M53.5691415,45.0092807 C53.5948956,44.9670534 53.6308585,44.9162413 53.6665893,44.8668213 L53.6665893,45.0092807 L53.5691415,45.0092807 L53.5691415,45.0092807 Z" id="LinkedIn__x28_alt_x29_"></path>
                        </g>
                    </g>
                </g>
            </g>
        </g>
    </g>
</svg>