<?xml version="1.0" encoding="UTF-8" standalone="no"?>
<svg width="12px" height="12px" viewBox="0 0 12 12" version="1.1" xmlns="http://www.w3.org/2000/svg" xmlns:xlink="http://www.w3.org/1999/xlink" xmlns:sketch="http://www.bohemiancoding.com/sketch/ns">
    <!-- Generator: Sketch 3.3 (11970) - http://www.bohemiancoding.com/sketch -->
    <title>Link</title>
    <desc>Created with Sketch.</desc>
    <defs></defs>
    <g id="Page-1" stroke="none" stroke-width="1" fill="none" fill-rule="evenodd" sketch:type="MSPage">
        <g id="Resume-Slack" sketch:type="MSArtboardGroup" transform="translate(-29.000000, -24.000000)" fill="#04408B">
            <g id="Header" sketch:type="MSLayerGroup" transform="translate(23.000000, 21.000000)">
                <g id="Contact" sketch:type="MSShapeGroup">
                    <g id="Website" transform="translate(6.000000, 0.000000)">
                        <g id="Link" transform="translate(0.000000, 3.000000)">
                            <path d="M9.05574856,0.228497836 C8.90933593,0.0820911602 8.71121022,0 8.50403473,0 C8.29702084,0 8.09889513,0.0820911602 7.95232089,0.228497836 L5.28085591,2.90114685 C4.9765568,3.20543357 4.9765568,3.6995965 5.28085591,4.00388322 C5.58515502,4.30816994 6.07933806,4.30816994 6.38363717,4.00388322 L8.50468114,1.88292559 L10.1169978,3.49517658 L7.99595379,5.61613421 C7.69100827,5.92090573 7.69100827,6.41458386 7.99595379,6.71887059 C8.14802255,6.87093315 8.34760268,6.94736842 8.54766763,6.94736842 C8.74708617,6.94736842 8.9466663,6.87093315 9.09938147,6.71887059 L11.7714929,4.04686796 C11.9179055,3.90046129 12,3.70218205 12,3.49517658 C12,3.28800952 11.9179055,3.08989188 11.7714929,2.9434852 L9.05574856,0.228497836 Z M3.49499367,12 C3.7019883,12 3.90025716,11.9179084 4.04665618,11.7715008 L6.71916532,9.09883631 C7.02343612,8.79454782 7.02343612,8.30038202 6.71916532,7.99609353 C6.41489453,7.69180505 5.92059587,7.69180505 5.61648666,7.99609353 L3.49564002,10.1170635 L1.88282705,8.50480313 L4.00367369,6.38383318 C4.30859084,6.0790599 4.30859084,5.58537889 4.00367369,5.28109041 C3.69940289,4.97680192 3.20526582,4.97615553 2.90099502,5.28109041 L0.228485878,7.95310854 C0.0820868641,8.09951607 0,8.29779646 0,8.50480313 C0,8.71197139 0.0820868641,8.91009018 0.228485878,9.05649771 L2.94397751,11.7715008 C3.08973018,11.9179084 3.28783745,12 3.49499367,12 Z M3.39174421,8.60795578 C3.54756107,8.76394504 3.7525571,8.84210526 3.95705638,8.84210526 C4.16139007,8.84210526 4.36588934,8.76394504 4.52236855,8.60795578 L8.60837998,4.52193139 C8.92001369,4.21011846 8.92001369,3.70356736 8.60837998,3.39175443 C8.29591833,3.07994151 7.7900517,3.07994151 7.4782524,3.39175443 L3.39174421,7.47794441 C3.07994491,7.78975734 3.07994491,8.29564607 3.39174421,8.60795578 Z" id="Fill-1"></path>
                        </g>
                    </g>
                </g>
            </g>
        </g>
    </g>
</svg>