<?xml version="1.0" encoding="UTF-8" standalone="no"?>
<svg width="14px" height="17px" viewBox="0 0 14 17" version="1.1" xmlns="http://www.w3.org/2000/svg" xmlns:xlink="http://www.w3.org/1999/xlink" xmlns:sketch="http://www.bohemiancoding.com/sketch/ns">
    <!-- Generator: Sketch 3.3 (11970) - http://www.bohemiancoding.com/sketch -->
    <title>Imported Layers</title>
    <desc>Created with Sketch.</desc>
    <defs></defs>
    <g id="Page-1" stroke="none" stroke-width="1" fill="none" fill-rule="evenodd" sketch:type="MSPage">
        <g id="Port" sketch:type="MSArtboardGroup" transform="translate(-342.000000, -271.000000)" fill="#383838">
            <g id="First" sketch:type="MSLayerGroup">
                <g id="Hi" transform="translate(100.000000, 100.000000)" sketch:type="MSShapeGroup">
                    <path d="M248.875,188 C248.875,188 255.25,182.1962 255.25,176.843693 C255.25,173.616413 252.39536,171 248.875,171 C245.35464,171 242.5,173.616413 242.5,176.843693 C242.5,182.1962 248.875,188 248.875,188 L248.875,188 Z M248.875,179.5 C250.635293,179.5 252.062387,178.07268 252.062387,176.312613 C252.062387,174.55232 250.635293,173.125 248.875,173.125 C247.114707,173.125 245.687613,174.55232 245.687613,176.312613 C245.687613,178.07268 247.114707,179.5 248.875,179.5 L248.875,179.5 Z" id="Imported-Layers"></path>
                </g>
            </g>
        </g>
    </g>
</svg>