<?xml version="1.0" encoding="UTF-8" standalone="no"?>
<svg width="22px" height="30px" viewBox="0 0 22 30" version="1.1" xmlns="http://www.w3.org/2000/svg" xmlns:xlink="http://www.w3.org/1999/xlink" xmlns:sketch="http://www.bohemiancoding.com/sketch/ns">
    <!-- Generator: Sketch 3.3 (11970) - http://www.bohemiancoding.com/sketch -->
    <title>resume_icon</title>
    <desc>Created with Sketch.</desc>
    <defs></defs>
    <g id="Page-1" stroke="none" stroke-width="1" fill="none" fill-rule="evenodd" sketch:type="MSPage">
        <g id="Port" sketch:type="MSArtboardGroup" transform="translate(-1223.000000, -1126.000000)" fill="#383838">
            <g id="Second" sketch:type="MSLayerGroup" transform="translate(0.000000, 1024.000000)">
                <g id="Resume" transform="translate(1223.000000, 100.000000)" sketch:type="MSShapeGroup">
                    <g id="resume_icon" transform="translate(0.000000, 2.000000)">
                        <path d="M0.261306122,0.313676471 L0.261306122,29.7794118 L21.5878367,29.7794118 L21.5878367,0.313676471 L0.261306122,0.313676471 Z M20.5529388,28.8882353 L1.16644898,28.8882353 L1.16644898,1.21323529 L20.5547347,1.21323529 L20.5547347,28.8882353 L20.5529388,28.8882353 Z" id="Fill-1"></path>
                        <path d="M7.26269388,4.515 C7.26269388,6.72970588 3.88142857,6.72970588 3.88142857,4.515 C3.88142857,2.29897059 7.26269388,2.29897059 7.26269388,4.515" id="Fill-2"></path>
                        <path d="M8.67428571,7.99632353 L2.58702041,7.99632353 C2.59195918,7.04514706 3.13926531,6.21088235 3.96538776,5.72514706 C4.28640816,6.21970588 4.88265306,6.55235294 5.56644898,6.55235294 C6.27538776,6.55235294 6.89093878,6.19544118 7.20118367,5.67132353 C8.08163265,6.14735294 8.66934694,7.00897059 8.67428571,7.99632353 L8.67428571,7.99632353 Z" id="Fill-3"></path>
                        <path d="M5.75412245,10.0279412 L19.3254286,10.0279412 L19.3254286,10.7898529 L5.75412245,10.7898529 L5.75412245,10.0279412 Z" id="Fill-4"></path>
                        <path d="M14.013102,2.47147059 L19.3254286,2.47147059 L19.3254286,3.23338235 L14.013102,3.23338235 L14.013102,2.47147059 Z" id="Fill-5"></path>
                        <path d="M14.013102,3.86911765 L19.3254286,3.86911765 L19.3254286,4.63102941 L14.013102,4.63102941 L14.013102,3.86911765 Z" id="Fill-6"></path>
                        <path d="M2.58702041,11.6170588 L19.3254286,11.6170588 L19.3254286,12.3789706 L2.58702041,12.3789706 L2.58702041,11.6170588 Z" id="Fill-7"></path>
                        <path d="M2.58702041,13.2044118 L19.3254286,13.2044118 L19.3254286,13.9663235 L2.58702041,13.9663235 L2.58702041,13.2044118 Z" id="Fill-8"></path>
                        <path d="M2.58702041,14.7913235 L19.3254286,14.7913235 L19.3254286,15.5532353 L2.58702041,15.5532353 L2.58702041,14.7913235 Z" id="Fill-9"></path>
                        <path d="M2.58702041,16.3786765 L19.3254286,16.3786765 L19.3254286,17.1405882 L2.58702041,17.1405882 L2.58702041,16.3786765 Z" id="Fill-10"></path>
                        <path d="M2.58702041,17.9660294 L19.3254286,17.9660294 L19.3254286,18.7279412 L2.58702041,18.7279412 L2.58702041,17.9660294 Z" id="Fill-11"></path>
                        <path d="M2.58702041,19.5547059 L19.3254286,19.5547059 L19.3254286,20.3166176 L2.58702041,20.3166176 L2.58702041,19.5547059 Z" id="Fill-12"></path>
                        <path d="M2.58702041,21.1420588 L19.3254286,21.1420588 L19.3254286,21.9039706 L2.58702041,21.9039706 L2.58702041,21.1420588 Z" id="Fill-13"></path>
                        <path d="M2.58702041,22.7294118 L19.3254286,22.7294118 L19.3254286,23.4913235 L2.58702041,23.4913235 L2.58702041,22.7294118 Z" id="Fill-14"></path>
                        <path d="M2.58702041,24.3163235 L9.79359184,24.3163235 L9.79359184,25.0782353 L2.58702041,25.0782353 L2.58702041,24.3163235 Z" id="Fill-15"></path>
                        <path d="M13.4657959,26.7617647 L19.2814286,26.7617647 L19.2814286,27.5236765 L13.4657959,27.5236765 L13.4657959,26.7617647 Z" id="Fill-16"></path>
                    </g>
                </g>
            </g>
        </g>
    </g>
</svg>