<?xml version="1.0" encoding="UTF-8" standalone="no"?>
<svg width="100px" height="85px" viewBox="0 0 100 85" version="1.1" xmlns="http://www.w3.org/2000/svg" xmlns:xlink="http://www.w3.org/1999/xlink" xmlns:sketch="http://www.bohemiancoding.com/sketch/ns">
    <!-- Generator: Sketch 3.3 (11970) - http://www.bohemiancoding.com/sketch -->
    <title>Twitter Logo</title>
    <desc>Created with Sketch.</desc>
    <defs></defs>
    <g id="Page-1" stroke="none" stroke-width="1" fill="none" fill-rule="evenodd" sketch:type="MSPage">
        <g id="Port" sketch:type="MSArtboardGroup" transform="translate(-166.000000, -4758.000000)" fill="#000000">
            <g id="Contact" sketch:type="MSLayerGroup" transform="translate(0.000000, 4384.000000)">
                <g id="Social" transform="translate(166.000000, 101.000000)" sketch:type="MSShapeGroup">
                    <g id="Twitter" transform="translate(0.000000, 273.000000)">
                        <path d="M97.3091617,10.1477352 C98.0537581,7.63547898 97.2032232,4.9219396 95.1465026,3.29048647 C93.981179,2.35671414 92.5691699,1.88907127 91.1314329,1.88907127 C90.002431,1.88907127 88.8734291,2.1841857 87.8564194,2.78803523 C85.8405608,3.97000638 83.730871,4.9219396 81.5318901,5.58935224 C77.3215908,2.36730799 72.1018489,0.583000721 66.7398466,0.583000721 C54.4434119,0.583000721 44.2581804,9.75122246 42.655482,21.6102825 C32.8531426,19.5111865 23.9210124,14.1143759 17.4890312,6.22195652 C16.266198,4.70854916 14.4274081,3.84590697 12.5053807,3.84590697 C12.346473,3.84590697 12.1739445,3.85801423 12.0029295,3.87012149 C9.89777987,4.03508289 8.01207431,5.22310766 6.94814894,7.04373671 C4.78548984,10.7455311 3.65043432,14.9709644 3.65043432,19.2690413 C3.65043432,22.1778102 4.16347941,25.0033418 5.11541264,27.6412108 C4.08780905,28.805021 3.49606677,30.3184284 3.49606677,31.9150731 C3.49606677,38.2880315 5.90238446,44.152485 9.90988713,48.5565004 C9.66168832,49.6552341 9.70406373,50.8145042 10.0642547,51.9313988 C11.4535626,56.2763913 13.9900334,60.012994 17.2711005,62.8687937 C15.1356827,63.3530841 12.9306482,63.6012829 10.696859,63.6012829 C9.53758892,63.6012829 8.36167141,63.5256125 7.17970027,63.3954595 C6.93150146,63.3651913 6.68330266,63.3470304 6.42905022,63.3470304 C3.73821195,63.3470304 1.29708589,65.0329662 0.379961033,67.6269464 C-0.6355353,70.4418841 0.43898392,73.5927982 2.95275353,75.2121441 C12.1921054,81.1295668 22.8752479,84.2638335 33.8292903,84.2638335 C69.3701486,84.2638335 90.7243263,55.6619479 91.1087318,27.7410957 C93.9993398,25.2757551 96.5403508,22.4441699 98.6984697,19.2750949 C99.5141962,18.1990623 100,16.8627236 100,15.3977453 C100,13.2335728 98.9360746,11.3175991 97.3091617,10.1477352 L97.3091617,10.1477352 Z M84.6237813,24.6431508 C84.6646433,25.4059081 84.6828042,26.1807727 84.6828042,26.9541238 C84.6828042,50.572359 66.7050382,77.8076377 33.8292903,77.8076377 C23.7378901,77.8076377 14.3441707,74.8519531 6.42905022,69.7790117 C7.81835817,69.9333792 9.24852812,70.0332641 10.6908053,70.0332641 C19.067515,70.0332641 26.7707584,67.1729242 32.8894644,62.3784497 C25.0621215,62.2422431 18.4651789,57.0633631 16.1890142,49.9700228 C17.2816943,50.1758462 18.4001024,50.293892 19.5472652,50.293892 C21.1787183,50.293892 22.7617424,50.0699077 24.2585022,49.6673414 C16.0815623,48.0177274 9.91594076,40.8002877 9.91594076,32.1330038 L9.91594076,31.9090195 C12.3283121,33.2453582 15.0827135,34.0489775 18.0156969,34.1382685 C13.2212224,30.9328718 10.0703083,25.4588774 10.0703083,19.2584474 C10.0703083,15.9819205 10.9511114,12.9142438 12.4872199,10.2778882 C21.296764,21.0896703 34.4679482,28.2026849 49.3235548,28.9472813 C49.0163331,27.6472644 48.863479,26.2746039 48.863479,24.8731887 C48.863479,15.0133398 56.8618368,7.00892834 66.7277394,7.00892834 C71.8718109,7.00892834 76.5179715,9.17764108 79.7808778,12.6418305 C83.8489167,11.8442648 87.6793507,10.3611256 91.1314329,8.30894525 C89.7950942,12.4768691 86.9574554,15.9819205 83.2753353,18.1930087 C86.8878387,17.7677412 90.3278136,16.8037007 93.5377506,15.3795844 C91.1435402,18.9739269 88.1167255,22.1187873 84.6237813,24.6431508 L84.6237813,24.6431508 Z" id="Twitter-Logo"></path>
                    </g>
                </g>
            </g>
        </g>
    </g>
</svg>