<?xml version="1.0" encoding="UTF-8" standalone="no"?>
<svg width="840px" height="840px" viewBox="0 0 840 840" version="1.1" xmlns="http://www.w3.org/2000/svg" xmlns:xlink="http://www.w3.org/1999/xlink">
    <!-- Generator: Sketch 3.7.2 (28276) - http://www.bohemiancoding.com/sketch -->
    <title>avatar</title>
    <desc>Created with Sketch.</desc>
    <defs></defs>
    <g id="Page-1" stroke="none" stroke-width="1" fill="none" fill-rule="evenodd">
        <g id="NoonBotAvatar" transform="translate(-92.000000, -92.000000)" fill="#000000">
            <g id="Group">
                <g id="avatar" transform="translate(92.000000, 92.000000)">
                    <path d="M420.662023,839.986659 C198.992206,841.769706 6.8136229,664.619362 0.183107852,433.095691 C-6.6636007,194.076586 179.466795,12.0486222 395.616704,0.625595613 C643.144309,-12.4547391 833.29695,181.450308 839.819369,407.109659 C846.716638,645.632793 655.183149,840.451194 420.662023,839.986659 L420.662023,839.986659 L420.662023,839.986659 Z M19.3755111,411.370809 C17.7662644,435.037658 20.8069213,464.135727 26.7627034,492.949137 C27.2369343,495.240379 30.2113384,498.226677 32.4656786,498.677241 C36.618686,499.505022 41.1360839,498.996827 45.4390319,498.502604 C67.6354787,495.961631 87.4921539,486.967809 107.06987,476.688657 C130.099708,464.598516 154.036163,455.171593 181.009789,459.062513 C201.17855,461.973717 218.899443,471.271407 236.717971,480.328098 C256.708896,490.490244 276.928218,500.379955 300.139379,498.829175 C320.862572,497.446048 339.531927,489.108862 358.230921,480.507975 C375.756542,472.44497 393.641323,464.186372 412.254886,459.720895 C436.043144,454.013748 458.665004,462.186774 479.980985,473.096367 C499.277998,482.973854 518.308257,493.794382 540.211796,496.571115 C550.636158,497.893119 562.134514,499.77571 571.718511,496.794651 C591.440937,490.663135 610.51827,482.102413 629.28003,473.302439 C651.486937,462.885324 674.309299,453.894995 698.742651,459.843142 C717.357957,464.37498 734.826043,473.531214 752.921787,480.31762 C769.912155,486.690136 786.986211,492.85134 804.182312,498.633582 C807.81227,499.85255 812.089066,499.967811 813.24326,493.794382 C823.637983,438.259716 823.53686,383.049876 810.790161,327.750971 C796.1971,264.455423 766.439111,209.056975 725.228098,159.638108 C690.794053,118.345115 648.983277,85.89401 601.133031,61.495431 C554.647942,37.7919085 505.22855,24.4566033 453.251449,19.6121643 C414.44123,15.9936791 376.166263,19.32052 338.119695,26.1069259 C304.529502,32.0987321 272.87982,44.5136987 242.454073,59.6337972 C168.685016,96.2954083 111.423379,150.990068 70.5418864,222.355606 C38.1425014,278.910154 19.9717867,339.865561 19.3755111,411.370809 L19.3755111,411.370809 L19.3755111,411.370809 Z M805.728792,531.926439 C798.981463,530.455993 793.036142,530.024639 787.807398,527.860882 C770.17891,520.566282 752.583549,513.116254 735.382218,504.875119 C708.863645,492.170255 681.713926,485.544515 653.206024,496.499514 C637.319289,502.60658 622.089852,510.510665 606.795906,518.075954 C579.733362,531.461904 551.807788,537.198739 522.837859,525.856046 C504.796163,518.793713 487.563449,509.672406 469.927988,501.558757 C446.495402,490.776649 422.300909,486.812382 397.581624,496.118804 C383.016459,501.604162 368.944703,508.486619 354.90433,515.267786 C331.049819,526.788609 306.630415,536.887885 279.726529,529.649168 C263.654983,525.325148 248.42729,517.829715 232.870076,511.637076 C217.325066,505.446183 202.256031,497.592743 186.233303,493.181405 C161.752876,486.442151 138.820674,494.435301 116.782886,505.088177 C93.8785795,516.160182 71.8111515,529.491995 45.5767681,531.643526 C42.2309994,531.917707 38.9148701,532.548148 34.5195168,533.161125 C36.2019904,538.358331 37.5479693,542.734742 39.0316843,547.067494 C43.8681421,561.186921 44.2778636,562.245223 58.4036677,557.048016 C79.2279832,549.388424 99.7297519,540.672275 119.823543,531.240114 C147.654968,518.17899 175.794993,514.134389 204.721334,526.140705 C220.201834,532.567358 235.038985,540.548283 250.198682,547.757311 C273.683572,558.925367 298.14482,564.665696 323.416794,555.706802 C339.96257,549.840734 355.86674,541.945381 371.603534,534.051775 C400.8315,519.389226 430.702816,512.955588 462.073539,525.997502 C478.078831,532.649437 493.50354,540.701964 509.182799,548.138021 C531.881373,558.902665 555.484821,564.271016 579.956529,556.043852 C594.671635,551.096377 608.759082,544.121362 622.81166,537.392587 C639.575373,529.364509 656.269347,521.292773 675.03808,519.301907 C697.862186,516.877942 718.377902,524.46244 738.489128,534.142586 C753.859788,541.543716 769.342032,548.810374 785.183436,555.104303 C794.636671,558.857259 798.817575,559.182084 800.70055,547.732862 C801.528711,542.671873 803.790025,537.850136 805.728792,531.926439 L805.728792,531.926439 L805.728792,531.926439 Z M784.606339,588.748181 C760.701266,577.908443 738.236321,566.548286 714.890911,557.467146 C691.894199,548.520476 668.290751,549.96822 645.632278,560.203713 C632.446218,566.160591 619.410099,572.470237 606.44895,578.909115 C579.717671,592.188536 552.076286,597.733271 523.374856,586.736359 C507.465455,580.641517 492.138383,572.913816 476.844436,565.325825 C450.620514,552.317091 423.55797,546.723458 395.417945,557.30648 C379.480649,563.301778 364.25993,571.28445 348.931113,578.813065 C322.166707,591.959762 294.572397,597.860756 265.813431,586.888294 C249.904031,580.817901 234.540345,573.174026 219.317882,565.474267 C190.196269,550.743609 160.633552,546.578509 130.002072,560.187995 C105.786657,570.945654 81.6863125,581.965268 57.1675291,593.032035 C59.5073006,597.551648 62.6246714,602.754094 64.9592124,608.291843 C67.6755791,614.737706 71.7361811,615.176046 77.3467511,612.449957 C91.4063023,605.618146 105.532106,598.919058 119.621297,592.150116 C143.918656,580.473865 169.291753,574.777196 195.360504,583.964865 C213.855509,590.48233 231.531071,599.469166 249.267655,607.987974 C273.361025,619.559442 298.226764,625.378358 324.112449,616.258797 C340.149124,610.611027 355.486658,602.806485 370.778861,595.241197 C396.695928,582.421071 423.420234,574.033241 452.01008,583.699417 C468.932452,589.420535 485.017945,597.717554 501.277788,605.286335 C521.157129,614.540366 541.209076,622.661001 563.827449,620.113043 C583.194201,617.92833 600.465272,609.816427 617.500971,601.028677 C637.350672,590.789692 657.245704,580.496568 680.277286,579.876606 C711.639291,579.031361 737.817882,593.358606 763.511782,608.938001 C766.078208,610.49402 768.576638,612.156567 771.662625,614.124729 C776.24802,605.1344 780.261547,597.265243 784.606339,588.748181 L784.606339,588.748181 L784.606339,588.748181 Z M756.206534,639.333625 C755.158693,638.128628 754.581596,636.984753 753.659286,636.476559 C747.574485,633.135747 741.418201,629.929406 735.281096,626.684645 C703.488447,609.879296 671.329665,607.726018 638.503123,623.83631 C622.67741,631.605924 606.844724,639.461111 590.565702,646.182901 C570.444016,654.492144 549.344228,656.66114 528.659392,648.851359 C510.856555,642.129569 493.531436,634.017666 476.363231,625.750335 C449.661591,612.89179 422.279987,607.692837 393.906334,618.558771 C378.546135,624.438809 363.815338,632.06522 349.070593,639.445393 C322.375927,652.803401 294.811256,658.585643 266.092391,647.677796 C249.92844,641.537548 234.372969,633.664898 218.885495,625.884806 C186.726712,609.732601 154.519112,608.029887 121.896559,624.175107 C109.850746,630.137224 97.8188804,636.125538 85.7190186,642.133061 C86.8087035,644.244427 87.1190458,645.068715 87.6089682,645.767264 C99.265982,662.377019 99.3235174,662.48704 117.365213,653.865196 C142.455863,641.871106 168.568202,635.294264 195.611568,644.768339 C214.362866,651.338194 232.177908,660.674305 250.203912,669.217562 C276.720742,681.780971 303.706572,686.426323 331.576355,674.38508 C347.473551,667.516595 363.030765,659.84827 378.66818,652.386018 C402.526178,641.003158 427.472118,635.868821 452.880085,644.656571 C471.671484,651.156571 489.521395,660.482204 507.5875,668.978309 C531.103773,680.039837 555.451694,686.333765 580.699259,677.292792 C599.427892,670.583226 617.431231,661.680216 635.356113,652.930887 C664.934521,638.49362 694.51293,636.289697 725.092105,649.726292 C744.047393,658.058238 744.246152,657.600688 756.206534,639.333625 L756.206534,639.333625 L756.206534,639.333625 Z M724.126209,682.605259 C702.606238,672.916381 681.595369,669.797358 661.050013,676.761894 C640.0775,683.871379 620.206877,694.278017 599.936993,703.429012 C574.60051,714.86601 548.632881,718.363995 522.30958,707.976568 C506.736674,701.832827 491.760044,694.124336 476.725879,686.691772 C450.766967,673.859422 423.948513,668.545209 396.017708,678.604318 C382.190042,683.584974 368.585543,689.714744 355.795257,696.949968 C316.747922,719.034602 278.378807,718.915849 239.143174,697.176996 C224.047986,688.811869 207.899727,681.669203 191.414973,676.664097 C166.795067,669.18962 142.971938,674.285537 118.19163,687.151068 C123.162337,691.635754 127.6623,694.581886 130.650652,698.645696 C135.389474,705.088066 140.900665,706.076514 148.045511,703.979119 C165.705382,698.792391 183.307717,700.287287 200.052252,707.061468 C217.161177,713.984091 233.773207,722.172835 250.420106,730.190434 C277.559364,743.258544 305.233875,746.840355 333.518609,734.701316 C348.927626,728.0878 363.797903,720.222136 378.994214,713.105665 C400.753043,702.913832 423.489974,696.497657 447.116087,704.279496 C465.670371,710.390055 483.698119,718.407654 501.371937,726.818187 C526.575914,738.815771 552.091977,747.790382 579.998373,738.318054 C594.172995,733.508543 608.075632,727.494034 621.401171,720.651744 C646.511,707.758271 671.695799,696.583229 700.988274,703.100694 C702.374353,703.408055 704.539775,702.54884 705.620743,701.490538 C711.560833,695.68734 717.27427,689.653621 724.126209,682.605259 L724.126209,682.605259 L724.126209,682.605259 Z M666.045128,737.788903 C665.673764,737.140999 665.304143,736.494841 664.932778,735.848683 C663.63213,736.157791 662.244307,736.273051 661.043039,736.805695 C643.367477,744.650403 625.493156,752.088206 608.115732,760.544145 C581.075854,773.696081 553.331603,780.437081 524.250091,769.138047 C505.416848,761.824237 487.413509,752.379851 468.962091,744.060129 C446.312335,733.843846 422.762936,729.764319 399.023495,738.740677 C379.886884,745.9759 361.501719,755.229932 342.888156,763.818595 C318.235124,775.196216 292.814953,779.387511 266.993778,769.359837 C248.169253,762.047772 230.185092,752.578937 211.728444,744.287158 C199.560586,738.82101 187.092846,734.311874 171.631524,734.861982 C174.393222,737.458839 175.692126,738.91706 177.217685,740.076652 C207.150024,762.85285 240.041074,780.196082 274.490811,795.15726 C294.915866,804.028836 314.136165,801.975101 333.34949,793.884154 C350.399137,786.703068 366.775794,777.934529 383.649348,770.306371 C409.40427,758.659808 435.811259,756.98329 462.129331,767.899869 C481.344399,775.870316 499.848122,785.552208 519.047499,793.564568 C530.967781,798.539985 543.294297,803.274403 556.811621,798.098153 C584.738939,787.398125 611.573085,774.546565 636.641069,758.183049 C646.622584,751.662091 656.253655,744.601505 666.045128,737.788903 L666.045128,737.788903 L666.045128,737.788903 Z M491.833271,814.81269 C443.991742,787.013923 386.649904,788.039044 359.913394,816.524136 C381.185788,824.375829 456.168318,823.53757 491.833271,814.81269 L491.833271,814.81269 L491.833271,814.81269 Z" id="Shape"></path>
                    <path d="M276.445312,302.96875 L276.445312,302.96875 C287.016388,302.96875 295.585938,294.3992 295.585938,283.828125 C295.585938,273.25705 287.016388,264.6875 276.445312,264.6875 C265.874237,264.6875 257.304688,273.25705 257.304688,283.828125 C257.304688,294.3992 265.874237,302.96875 276.445312,302.96875 L276.445312,302.96875 L276.445312,302.96875 Z M276.445312,341.25 C244.732087,341.25 219.023437,315.541351 219.023437,283.828125 C219.023437,252.114899 244.732087,226.40625 276.445312,226.40625 C308.158538,226.40625 333.867187,252.114899 333.867187,283.828125 C333.867187,315.541351 308.158538,341.25 276.445312,341.25 L276.445312,341.25 Z M563.554688,302.96875 C574.125763,302.96875 582.695312,294.3992 582.695312,283.828125 C582.695312,273.25705 574.125763,264.6875 563.554688,264.6875 C552.983612,264.6875 544.414062,273.25705 544.414062,283.828125 C544.414062,294.3992 552.983612,302.96875 563.554688,302.96875 L563.554688,302.96875 Z M563.554688,341.25 L563.554688,341.25 C531.841462,341.25 506.132812,315.541351 506.132812,283.828125 C506.132812,252.114899 531.841462,226.40625 563.554688,226.40625 C595.267913,226.40625 620.976562,252.114899 620.976562,283.828125 C620.976562,315.541351 595.267913,341.25 563.554688,341.25 L563.554688,341.25 L563.554688,341.25 Z" id="Shape"></path>
                </g>
            </g>
        </g>
    </g>
</svg>