<?xml version="1.0" encoding="UTF-8" standalone="no"?>
<svg width="122px" height="122px" viewBox="0 0 122 122" version="1.1" xmlns="http://www.w3.org/2000/svg" xmlns:xlink="http://www.w3.org/1999/xlink">
    <!-- Generator: Sketch 41.2 (35397) - http://www.bohemiancoding.com/sketch -->
    <title>white_label_logo</title>
    <desc>Created with Sketch.</desc>
    <defs></defs>
    <g id="v2" stroke="none" stroke-width="1" fill="none" fill-rule="evenodd">
        <g id="Artboard-8" transform="translate(-431.000000, -253.000000)" stroke-width="2" stroke="#3863FF" fill="#FFFFFF">
            <g id="white_label_logo" transform="translate(432.000000, 254.000000)">
                <g id="white_label_logo-68392916">
                    <g id="Page-1">
                        <g id="Artboard-1">
                            <g id="white_label_logo-68392916">
                                <g id="Artboard-1">
                                    <g id="white_label_logo">
                                        <g id="Group">
                                            <g id="Shape">
                                                <path d="M59.4661623,0.303230769 C27.020872,0.381692308 0.343684512,27.1670769 0.315619244,59.9026154 C0.287553976,92.9316923 26.898029,119.687077 59.7873025,119.697692 C92.1778422,119.732769 119.715852,93.4015385 119.302234,59.2043077 C118.90518,26.3390769 92.0931869,0.224307692 59.4661623,0.303230769 L59.4661623,0.303230769 L59.4661623,0.303230769 L59.4661623,0.303230769 Z M40.0058894,59.8924615 C40.0689212,48.8612308 48.9407665,40.0795385 59.9759379,40.1252308 C70.9374955,40.1709231 79.6708548,49.104 79.6165646,60.2150769 C79.5627346,71.1706154 70.6747862,79.9283077 59.6639994,79.8747692 C48.7558119,79.8216923 39.9433177,70.8636923 40.0058894,59.8924615 L40.0058894,59.8924615 L40.0058894,59.8924615 L40.0058894,59.8924615 Z M72.1714471,59.8236923 C72.0674676,52.5276923 66.0021491,47.3746154 59.4422377,47.6067692 C52.6053545,47.8490769 47.195659,53.6123077 47.46711,60.2750769 C47.7509832,67.2406154 53.4795185,72.6890769 60.2174833,72.4015385 C67.0161795,72.1112308 72.4502595,66.3936923 72.1714471,59.8236923 L72.1714471,59.8236923 L72.1714471,59.8236923 L72.1714471,59.8236923 Z"></path>
                                            </g>
                                        </g>
                                    </g>
                                </g>
                            </g>
                        </g>
                    </g>
                </g>
            </g>
        </g>
    </g>
</svg>