<?xml version="1.0" encoding="UTF-8" standalone="no"?>
<svg width="672px" height="170px" viewBox="0 0 672 170" version="1.1" xmlns="http://www.w3.org/2000/svg" xmlns:xlink="http://www.w3.org/1999/xlink" xmlns:sketch="http://www.bohemiancoding.com/sketch/ns">
    <!-- Generator: Sketch 3.3 (11970) - http://www.bohemiancoding.com/sketch -->
    <title>passion</title>
    <desc>Created with Sketch.</desc>
    <defs>
        <path d="M22.1,0.2 L23.2,0.2 L23.2,38 L22.1,38 L22.1,31.8 L21.95,31.8 C20.949995,34.066678 19.5250093,35.7833275 17.675,36.95 C15.8249908,38.1166725 13.800011,38.7 11.6,38.7 C9.933325,38.7 8.39167375,38.3916698 6.975,37.775 C5.55832625,37.1583303 4.34167175,36.3083388 3.325,35.225 C2.30832825,34.1416613 1.5166695,32.8583408 0.95,31.375 C0.3833305,29.8916593 0.1,28.283342 0.1,26.55 C0.1,24.816658 0.3833305,23.2000075 0.95,21.7 C1.5166695,20.1999925 2.30832825,18.9000055 3.325,17.8 C4.34167175,16.6999945 5.55832625,15.8416698 6.975,15.225 C8.39167375,14.6083303 9.933325,14.3 11.6,14.3 C13.800011,14.3 15.8249908,14.8833275 17.675,16.05 C19.5250093,17.2166725 20.949995,18.9499885 21.95,21.25 L22.1,21.25 L22.1,0.2 Z M1.2,26.55 C1.2,28.0500075 1.44166425,29.4833265 1.925,30.85 C2.40833575,32.2166735 3.0999955,33.4083282 4,34.425 C4.9000045,35.4416717 5.99166025,36.249997 7.275,36.85 C8.55833975,37.450003 9.999992,37.75 11.6,37.75 C13.133341,37.75 14.5416603,37.450003 15.825,36.85 C17.1083398,36.249997 18.216662,35.4416717 19.15,34.425 C20.083338,33.4083282 20.816664,32.2166735 21.35,30.85 C21.883336,29.4833265 22.15,28.033341 22.15,26.5 C22.15,24.966659 21.883336,23.5166735 21.35,22.15 C20.816664,20.7833265 20.083338,19.5916717 19.15,18.575 C18.216662,17.5583283 17.1083398,16.750003 15.825,16.15 C14.5416603,15.549997 13.133341,15.25 11.6,15.25 C9.999992,15.25 8.55833975,15.5583302 7.275,16.175 C5.99166025,16.7916697 4.9000045,17.6166615 4,18.65 C3.0999955,19.6833385 2.40833575,20.8833265 1.925,22.25 C1.44166425,23.6166735 1.2,25.0499925 1.2,26.55 L1.2,26.55 Z M32.5,26.25 C32.5,27.650007 32.7083312,29.0333265 33.125,30.4 C33.5416687,31.7666735 34.1749957,32.9916613 35.025,34.075 C35.8750042,35.1583388 36.9499935,36.03333 38.25,36.7 C39.5500065,37.36667 41.0833245,37.7 42.85,37.7 C44.650009,37.7 46.249993,37.3416703 47.65,36.625 C49.050007,35.9083298 50.2666615,34.8666735 51.3,33.5 L52.1,34.2 C50.966661,35.666674 49.6416742,36.7833295 48.125,37.55 C46.6083257,38.3166705 44.85001,38.7 42.85,38.7 C41.1499915,38.7 39.600007,38.3916698 38.2,37.775 C36.799993,37.1583303 35.5916717,36.3000055 34.575,35.2 C33.5583282,34.0999945 32.7750027,32.783341 32.225,31.25 C31.6749972,29.716659 31.4,28.050009 31.4,26.25 C31.4,24.516658 31.6833305,22.916674 32.25,21.45 C32.8166695,19.983326 33.5916617,18.716672 34.575,17.65 C35.5583382,16.583328 36.71666,15.7583363 38.05,15.175 C39.38334,14.5916638 40.816659,14.3 42.35,14.3 C44.150009,14.3 45.71666,14.6166635 47.05,15.25 C48.38334,15.8833365 49.4916622,16.7166615 50.375,17.75 C51.2583377,18.7833385 51.9166645,19.9583268 52.35,21.275 C52.7833355,22.5916733 53,23.9333265 53,25.3 L53,26.25 L32.5,26.25 Z M51.95,25.3 C51.9166665,23.7999925 51.6583358,22.4333395 51.175,21.2 C50.6916643,19.9666605 50.0333375,18.9083377 49.2,18.025 C48.3666625,17.1416622 47.3666725,16.4583358 46.2,15.975 C45.0333275,15.4916642 43.7333405,15.25 42.3,15.25 C40.566658,15.25 39.0833395,15.6083297 37.85,16.325 C36.6166605,17.0416703 35.6083373,17.9249947 34.825,18.975 C34.0416628,20.0250052 33.4666685,21.1249943 33.1,22.275 C32.7333315,23.4250057 32.55,24.433329 32.55,25.3 L51.95,25.3 Z M74.15,32 C74.15,33.0333385 73.950002,33.9583293 73.55,34.775 C73.149998,35.5916708 72.6083368,36.2833305 71.925,36.85 C71.2416633,37.4166695 70.4500045,37.8499985 69.55,38.15 C68.6499955,38.4500015 67.6833385,38.6 66.65,38.6 C64.9499915,38.6 63.4083403,38.2750033 62.025,37.625 C60.6416598,36.9749968 59.5000045,36.016673 58.6,34.75 L59.5,34.15 C61.166675,36.483345 63.566651,37.65 66.7,37.65 C67.433337,37.65 68.1749963,37.5333345 68.925,37.3 C69.6750038,37.0666655 70.3583303,36.716669 70.975,36.25 C71.5916698,35.783331 72.0916648,35.2000035 72.475,34.5 C72.8583353,33.7999965 73.05,33.0000045 73.05,32.1 C73.05,31.033328 72.8083358,30.16667 72.325,29.5 C71.8416643,28.83333 71.233337,28.300002 70.5,27.9 C69.766663,27.499998 68.9583378,27.1750013 68.075,26.925 C67.1916623,26.6749988 66.3666705,26.450001 65.6,26.25 C64.7666625,26.0166655 63.983337,25.7583348 63.25,25.475 C62.516663,25.1916653 61.8750028,24.8250023 61.325,24.375 C60.7749973,23.9249978 60.3416683,23.36667 60.025,22.7 C59.7083318,22.03333 59.55,21.200005 59.55,20.2 C59.55,19.199995 59.749998,18.333337 60.15,17.6 C60.550002,16.866663 61.08333,16.2583358 61.75,15.775 C62.41667,15.2916643 63.1749958,14.9250013 64.025,14.675 C64.8750043,14.4249988 65.733329,14.3 66.6,14.3 C69.733349,14.3 72.0833255,15.4166555 73.65,17.65 L72.7,18.2 C71.9333295,17.199995 71.0666715,16.4583358 70.1,15.975 C69.1333285,15.4916643 67.9666735,15.25 66.6,15.25 C65.9666635,15.25 65.3000035,15.3333325 64.6,15.5 C63.8999965,15.6666675 63.2583363,15.9416648 62.675,16.325 C62.0916638,16.7083353 61.6083353,17.2166635 61.225,17.85 C60.8416648,18.4833365 60.65,19.2499955 60.65,20.15 C60.65,21.150005 60.8083318,21.949997 61.125,22.55 C61.4416683,23.150003 61.8833305,23.6333315 62.45,24 C63.0166695,24.3666685 63.699996,24.6749988 64.5,24.925 C65.300004,25.1750013 66.1833285,25.4166655 67.15,25.65 C68.0500045,25.8833345 68.9249958,26.1583318 69.775,26.475 C70.6250043,26.7916683 71.3749968,27.183331 72.025,27.65 C72.6750033,28.116669 73.1916648,28.6999965 73.575,29.4 C73.9583353,30.1000035 74.15,30.9666615 74.15,32 L74.15,32 Z M82.5,6.35 C82.1999985,6.35 81.9333345,6.2333345 81.7,6 C81.4666655,5.7666655 81.35,5.450002 81.35,5.05 C81.35,4.6833315 81.4666655,4.3833345 81.7,4.15 C81.9333345,3.9166655 82.1999985,3.8 82.5,3.8 C82.8000015,3.8 83.0666655,3.9166655 83.3,4.15 C83.5333345,4.3833345 83.65,4.6833315 83.65,5.05 C83.65,5.450002 83.5250013,5.7666655 83.275,6 C83.0249988,6.2333345 82.766668,6.35 82.5,6.35 L82.5,6.35 Z M81.95,38 L81.95,15 L83.05,15 L83.05,38 L81.95,38 Z M113.25,31.8 L113.1,31.8 C112.666665,32.933339 112.083337,33.9249958 111.35,34.775 C110.616663,35.6250043 109.800005,36.3416638 108.9,36.925 C107.999996,37.5083363 107.025005,37.9499985 105.975,38.25 C104.924995,38.5500015 103.850005,38.7 102.75,38.7 C101.083325,38.7 99.5416738,38.3916698 98.125,37.775 C96.7083263,37.1583303 95.4916718,36.3083388 94.475,35.225 C93.4583283,34.1416613 92.6666695,32.8583408 92.1,31.375 C91.5333305,29.8916593 91.25,28.283342 91.25,26.55 C91.25,24.816658 91.5333305,23.2000075 92.1,21.7 C92.6666695,20.1999925 93.4583283,18.9000055 94.475,17.8 C95.4916718,16.6999945 96.7083263,15.8416698 98.125,15.225 C99.5416738,14.6083303 101.083325,14.3 102.75,14.3 C104.950011,14.3 106.974991,14.8833275 108.825,16.05 C110.675009,17.2166725 112.099995,18.9499885 113.1,21.25 L113.25,21.25 L113.25,15 L114.35,15 L114.35,36.7 C114.35,38.5333425 114.158335,40.283325 113.775,41.95 C113.391665,43.616675 112.758338,45.083327 111.875,46.35 C110.991662,47.616673 109.825007,48.6249963 108.375,49.375 C106.924993,50.1250038 105.133344,50.5 103,50.5 C100.833323,50.5 98.9000085,50.1250038 97.2,49.375 C95.4999915,48.6249963 94.050006,47.5666735 92.85,46.2 L93.6,45.45 C94.866673,46.8833405 96.3083253,47.9249968 97.925,48.575 C99.5416748,49.2250033 101.233324,49.55 103,49.55 C105.00001,49.55 106.66666,49.183337 108,48.45 C109.33334,47.716663 110.38333,46.750006 111.15,45.55 C111.91667,44.349994 112.458332,42.9750078 112.775,41.425 C113.091668,39.8749923 113.25,38.266675 113.25,36.6 L113.25,31.8 Z M92.35,26.55 C92.35,28.0500075 92.5916643,29.4833265 93.075,30.85 C93.5583358,32.2166735 94.2499955,33.4166615 95.15,34.45 C96.0500045,35.4833385 97.1416603,36.299997 98.425,36.9 C99.7083398,37.500003 101.149992,37.8 102.75,37.8 C104.283341,37.8 105.69166,37.500003 106.975,36.9 C108.25834,36.299997 109.366662,35.4833385 110.3,34.45 C111.233338,33.4166615 111.966664,32.2166735 112.5,30.85 C113.033336,29.4833265 113.3,28.033341 113.3,26.5 C113.3,24.966659 113.033336,23.5166735 112.5,22.15 C111.966664,20.7833265 111.233338,19.5916717 110.3,18.575 C109.366662,17.5583283 108.25834,16.750003 106.975,16.15 C105.69166,15.549997 104.283341,15.25 102.75,15.25 C101.149992,15.25 99.7083398,15.5583302 98.425,16.175 C97.1416603,16.7916697 96.0500045,17.6166615 95.15,18.65 C94.2499955,19.6833385 93.5583358,20.8833265 93.075,22.25 C92.5916643,23.6166735 92.35,25.0499925 92.35,26.55 L92.35,26.55 Z M125.85,21.05 C126.183335,19.983328 126.666664,19.0333375 127.3,18.2 C127.933337,17.3666625 128.649996,16.6583363 129.45,16.075 C130.250004,15.4916638 131.116662,15.0500015 132.05,14.75 C132.983338,14.4499985 133.949995,14.3 134.95,14.3 C136.550008,14.3 137.883328,14.5833305 138.95,15.15 C140.016672,15.7166695 140.866664,16.466662 141.5,17.4 C142.133337,18.333338 142.583332,19.3833275 142.85,20.55 C143.116668,21.7166725 143.25,22.899994 143.25,24.1 L143.25,38 L142.15,38 L142.15,24.2 C142.15,23.266662 142.050001,22.266672 141.85,21.2 C141.649999,20.133328 141.275003,19.166671 140.725,18.3 C140.174997,17.433329 139.433338,16.7083363 138.5,16.125 C137.566662,15.5416638 136.383341,15.25 134.95,15.25 C133.683327,15.25 132.491672,15.5083308 131.375,16.025 C130.258328,16.5416693 129.291671,17.2833285 128.475,18.25 C127.658329,19.2166715 127.008336,20.3916598 126.525,21.775 C126.041664,23.1583403 125.8,24.7333245 125.8,26.5 L125.8,38 L124.7,38 L124.7,20.8 C124.7,20.4333315 124.691667,19.983336 124.675,19.45 C124.658333,18.916664 124.641667,18.3750028 124.625,17.825 C124.608333,17.2749973 124.583334,16.7500025 124.55,16.25 C124.516667,15.7499975 124.483334,15.333335 124.45,15 L125.55,15 C125.583334,15.333335 125.608333,15.7499975 125.625,16.25 C125.641667,16.7500025 125.658333,17.2916638 125.675,17.875 C125.691667,18.4583363 125.708333,19.0249973 125.725,19.575 C125.741667,20.1250028 125.75,20.6166645 125.75,21.05 L125.85,21.05 Z M153.7,6.35 C153.399999,6.35 153.133335,6.2333345 152.9,6 C152.666666,5.7666655 152.55,5.450002 152.55,5.05 C152.55,4.6833315 152.666666,4.3833345 152.9,4.15 C153.133335,3.9166655 153.399999,3.8 153.7,3.8 C154.000002,3.8 154.266666,3.9166655 154.5,4.15 C154.733335,4.3833345 154.85,4.6833315 154.85,5.05 C154.85,5.450002 154.725001,5.7666655 154.475,6 C154.224999,6.2333345 153.966668,6.35 153.7,6.35 L153.7,6.35 Z M153.15,38 L153.15,15 L154.25,15 L154.25,38 L153.15,38 Z M165.75,21.05 C166.083335,19.983328 166.566664,19.0333375 167.2,18.2 C167.833337,17.3666625 168.549996,16.6583363 169.35,16.075 C170.150004,15.4916638 171.016662,15.0500015 171.95,14.75 C172.883338,14.4499985 173.849995,14.3 174.85,14.3 C176.450008,14.3 177.783328,14.5833305 178.85,15.15 C179.916672,15.7166695 180.766664,16.466662 181.4,17.4 C182.033337,18.333338 182.483332,19.3833275 182.75,20.55 C183.016668,21.7166725 183.15,22.899994 183.15,24.1 L183.15,38 L182.05,38 L182.05,24.2 C182.05,23.266662 181.950001,22.266672 181.75,21.2 C181.549999,20.133328 181.175003,19.166671 180.625,18.3 C180.074997,17.433329 179.333338,16.7083363 178.4,16.125 C177.466662,15.5416638 176.283341,15.25 174.85,15.25 C173.583327,15.25 172.391672,15.5083308 171.275,16.025 C170.158328,16.5416693 169.191671,17.2833285 168.375,18.25 C167.558329,19.2166715 166.908336,20.3916598 166.425,21.775 C165.941664,23.1583403 165.7,24.7333245 165.7,26.5 L165.7,38 L164.6,38 L164.6,20.8 C164.6,20.4333315 164.591667,19.983336 164.575,19.45 C164.558333,18.916664 164.541667,18.3750028 164.525,17.825 C164.508333,17.2749973 164.483334,16.7500025 164.45,16.25 C164.416667,15.7499975 164.383334,15.333335 164.35,15 L165.45,15 C165.483334,15.333335 165.508333,15.7499975 165.525,16.25 C165.541667,16.7500025 165.558333,17.2916638 165.575,17.875 C165.591667,18.4583363 165.608333,19.0249973 165.625,19.575 C165.641667,20.1250028 165.65,20.6166645 165.65,21.05 L165.75,21.05 Z M213.05,31.8 L212.9,31.8 C212.466665,32.933339 211.883337,33.9249958 211.15,34.775 C210.416663,35.6250043 209.600005,36.3416638 208.7,36.925 C207.799996,37.5083363 206.825005,37.9499985 205.775,38.25 C204.724995,38.5500015 203.650006,38.7 202.55,38.7 C200.883325,38.7 199.341674,38.3916698 197.925,37.775 C196.508326,37.1583303 195.291672,36.3083388 194.275,35.225 C193.258328,34.1416613 192.46667,32.8583408 191.9,31.375 C191.333331,29.8916593 191.05,28.283342 191.05,26.55 C191.05,24.816658 191.333331,23.2000075 191.9,21.7 C192.46667,20.1999925 193.258328,18.9000055 194.275,17.8 C195.291672,16.6999945 196.508326,15.8416698 197.925,15.225 C199.341674,14.6083303 200.883325,14.3 202.55,14.3 C204.750011,14.3 206.774991,14.8833275 208.625,16.05 C210.475009,17.2166725 211.899995,18.9499885 212.9,21.25 L213.05,21.25 L213.05,15 L214.15,15 L214.15,36.7 C214.15,38.5333425 213.958335,40.283325 213.575,41.95 C213.191665,43.616675 212.558338,45.083327 211.675,46.35 C210.791662,47.616673 209.625007,48.6249963 208.175,49.375 C206.724993,50.1250038 204.933344,50.5 202.8,50.5 C200.633323,50.5 198.700009,50.1250038 197,49.375 C195.299992,48.6249963 193.850006,47.5666735 192.65,46.2 L193.4,45.45 C194.666673,46.8833405 196.108325,47.9249968 197.725,48.575 C199.341675,49.2250033 201.033325,49.55 202.8,49.55 C204.80001,49.55 206.46666,49.183337 207.8,48.45 C209.13334,47.716663 210.18333,46.750006 210.95,45.55 C211.716671,44.349994 212.258332,42.9750078 212.575,41.425 C212.891668,39.8749923 213.05,38.266675 213.05,36.6 L213.05,31.8 Z M192.15,26.55 C192.15,28.0500075 192.391664,29.4833265 192.875,30.85 C193.358336,32.2166735 194.049995,33.4166615 194.95,34.45 C195.850004,35.4833385 196.94166,36.299997 198.225,36.9 C199.50834,37.500003 200.949992,37.8 202.55,37.8 C204.083341,37.8 205.49166,37.500003 206.775,36.9 C208.05834,36.299997 209.166662,35.4833385 210.1,34.45 C211.033338,33.4166615 211.766664,32.2166735 212.3,30.85 C212.833336,29.4833265 213.1,28.033341 213.1,26.5 C213.1,24.966659 212.833336,23.5166735 212.3,22.15 C211.766664,20.7833265 211.033338,19.5916717 210.1,18.575 C209.166662,17.5583283 208.05834,16.750003 206.775,16.15 C205.49166,15.549997 204.083341,15.25 202.55,15.25 C200.949992,15.25 199.50834,15.5583302 198.225,16.175 C196.94166,16.7916697 195.850004,17.6166615 194.95,18.65 C194.049995,19.6833385 193.358336,20.8833265 192.875,22.25 C192.391664,23.6166735 192.15,25.0499925 192.15,26.55 L192.15,26.55 Z" id="path-1"></path>
    </defs>
    <g id="Page-1" stroke="none" stroke-width="1" fill="none" fill-rule="evenodd" sketch:type="MSPage">
        <g id="Artboard-13" sketch:type="MSArtboardGroup" transform="translate(-431.000000, -605.000000)">
            <g id="passion" sketch:type="MSLayerGroup" transform="translate(431.000000, 605.000000)">
                <g id="&lt;developing&gt;" transform="translate(335.000000, 66.000000)" sketch:type="MSShapeGroup">
                    <path d="M51.2993249,1.36035156 L51.2993249,29.9492188 L54.0336999,29.9492188 C54.5382597,29.9492188 54.896329,30.0428051 55.1079186,30.2299805 C55.3195082,30.4171559 55.4253014,30.665363 55.4253014,30.9746094 C55.4253014,31.2675796 55.3195082,31.5117178 55.1079186,31.7070312 C54.896329,31.9023447 54.5382597,32 54.0336999,32 L49.2241296,32 L49.2241296,27.9228516 C46.8478156,31.1780762 43.8286401,32.8056641 40.1665124,32.8056641 C38.3110343,32.8056641 36.5328946,32.3133187 34.8320397,31.3286133 C33.1311849,30.3439078 31.7884248,28.9401133 30.8037194,27.1171875 C29.819014,25.2942617 29.3266686,23.4143977 29.3266686,21.4775391 C29.3266686,19.5244043 29.819014,17.6404713 30.8037194,15.8256836 C31.7884248,14.0108959 33.1311849,12.6071013 34.8320397,11.6142578 C36.5328946,10.6214143 38.3191723,10.125 40.1909264,10.125 C43.7716735,10.125 46.7827111,11.7525879 49.2241296,15.0078125 L49.2241296,3.43554688 L46.4897546,3.43554688 C45.9851947,3.43554688 45.6271254,3.3378916 45.4155358,3.14257812 C45.2039462,2.94726465 45.098153,2.69498853 45.098153,2.38574219 C45.098153,2.09277197 45.2039462,1.84863379 45.4155358,1.65332031 C45.6271254,1.45800684 45.9851947,1.36035156 46.4897546,1.36035156 L51.2993249,1.36035156 Z M49.2241296,21.4775391 C49.2241296,18.8733594 48.3452321,16.6761157 46.5874108,14.8857422 C44.8295895,13.0953687 42.7381391,12.2001953 40.3129967,12.2001953 C37.8715783,12.2001953 35.7719899,13.0953687 34.0141686,14.8857422 C32.2563473,16.6761157 31.3774499,18.8733594 31.3774499,21.4775391 C31.3774499,24.0654426 32.2563473,26.2586173 34.0141686,28.0571289 C35.7719899,29.8556405 37.8715783,30.7548828 40.3129967,30.7548828 C42.7381391,30.7548828 44.8295895,29.8556405 46.5874108,28.0571289 C48.3452321,26.2586173 49.2241296,24.0654426 49.2241296,21.4775391 L49.2241296,21.4775391 Z M80.5996263,21.9169922 L59.7011888,21.9169922 C60.0592635,24.5700002 61.1700922,26.7062094 63.0337083,28.3256836 C64.8973244,29.9451578 67.2044303,30.7548828 69.9550951,30.7548828 C71.4850506,30.7548828 73.0882247,30.5026067 74.7646654,29.9980469 C76.441106,29.4934871 77.8082799,28.826176 78.8662279,27.9960938 C79.1754742,27.7519519 79.4440262,27.6298828 79.6718919,27.6298828 C79.9323099,27.6298828 80.1601722,27.7316071 80.3554857,27.9350586 C80.5507992,28.1385101 80.6484544,28.3785793 80.6484544,28.6552734 C80.6484544,28.9319675 80.5182474,29.2005195 80.2578294,29.4609375 C79.4765755,30.2747437 78.0890568,31.035641 76.0952318,31.7436523 C74.1014067,32.4516637 72.0547149,32.8056641 69.9550951,32.8056641 C66.4394525,32.8056641 63.5057253,31.6541456 61.1538255,29.3510742 C58.8019257,27.0480028 57.6259935,24.2607585 57.6259935,20.9892578 C57.6259935,18.0107273 58.7286843,15.4554143 60.934099,13.3232422 C63.1395136,11.1910701 65.8697923,10.125 69.1250169,10.125 C72.4778983,10.125 75.2366597,11.2195529 77.4013841,13.4086914 C79.5661085,15.59783 80.6321785,18.4339019 80.5996263,21.9169922 L80.5996263,21.9169922 Z M78.524431,19.8417969 C78.1175279,17.5794158 77.0473889,15.7402415 75.3139818,14.3242188 C73.5805747,12.908196 71.517607,12.2001953 69.1250169,12.2001953 C66.7324268,12.2001953 64.6735282,12.9000581 62.9482591,14.2998047 C61.2229901,15.6995513 60.1487821,17.5468635 59.7256029,19.8417969 L78.524431,19.8417969 Z M99.5483652,32 L96.0815684,32 L87.6587168,12.9326172 L85.5591074,12.9326172 C85.0708237,12.9326172 84.7208923,12.8349619 84.5093027,12.6396484 C84.2977131,12.444335 84.1919199,12.1920588 84.1919199,11.8828125 C84.1919199,11.5898423 84.2977131,11.3457041 84.5093027,11.1503906 C84.7208923,10.9550771 85.0708237,10.8574219 85.5591074,10.8574219 L93.2495371,10.8574219 C93.7378208,10.8574219 94.0877522,10.9550771 94.2993418,11.1503906 C94.5109314,11.3457041 94.6167246,11.5979802 94.6167246,11.9072266 C94.6167246,12.2001968 94.5109314,12.444335 94.2993418,12.6396484 C94.0877522,12.8349619 93.7378208,12.9326172 93.2495371,12.9326172 L89.8559824,12.9326172 L97.3755137,29.9492188 L98.278834,29.9492188 L105.651881,12.9326172 L102.233912,12.9326172 C101.745628,12.9326172 101.395697,12.8349619 101.184107,12.6396484 C100.972518,12.444335 100.866725,12.1920588 100.866725,11.8828125 C100.866725,11.5898423 100.972518,11.3457041 101.184107,11.1503906 C101.395697,10.9550771 101.745628,10.8574219 102.233912,10.8574219 L109.948756,10.8574219 C110.453316,10.8574219 110.807316,10.9550771 111.010768,11.1503906 C111.214219,11.3457041 111.315943,11.5979802 111.315943,11.9072266 C111.315943,12.2001968 111.214219,12.444335 111.010768,12.6396484 C110.807316,12.8349619 110.453316,12.9326172 109.948756,12.9326172 L107.873561,12.9326172 L99.5483652,32 Z M137.10062,21.9169922 L116.202182,21.9169922 C116.560257,24.5700002 117.671086,26.7062094 119.534702,28.3256836 C121.398318,29.9451578 123.705424,30.7548828 126.456089,30.7548828 C127.986044,30.7548828 129.589218,30.5026067 131.265659,29.9980469 C132.9421,29.4934871 134.309273,28.826176 135.367221,27.9960938 C135.676468,27.7519519 135.94502,27.6298828 136.172885,27.6298828 C136.433303,27.6298828 136.661166,27.7316071 136.856479,27.9350586 C137.051793,28.1385101 137.149448,28.3785793 137.149448,28.6552734 C137.149448,28.9319675 137.019241,29.2005195 136.758823,29.4609375 C135.977569,30.2747437 134.59005,31.035641 132.596225,31.7436523 C130.6024,32.4516637 128.555708,32.8056641 126.456089,32.8056641 C122.940446,32.8056641 120.006719,31.6541456 117.654819,29.3510742 C115.302919,27.0480028 114.126987,24.2607585 114.126987,20.9892578 C114.126987,18.0107273 115.229678,15.4554143 117.435092,13.3232422 C119.640507,11.1910701 122.370786,10.125 125.62601,10.125 C128.978892,10.125 131.737653,11.2195529 133.902378,13.4086914 C136.067102,15.59783 137.133172,18.4339019 137.10062,21.9169922 L137.10062,21.9169922 Z M135.025424,19.8417969 C134.618521,17.5794158 133.548382,15.7402415 131.814975,14.3242188 C130.081568,12.908196 128.018601,12.2001953 125.62601,12.2001953 C123.23342,12.2001953 121.174522,12.9000581 119.449253,14.2998047 C117.723984,15.6995513 116.649776,17.5468635 116.226596,19.8417969 L135.025424,19.8417969 Z M155.292523,1.36035156 L155.292523,29.9492188 L163.349163,29.9492188 C163.853723,29.9492188 164.211793,30.0428051 164.423382,30.2299805 C164.634972,30.4171559 164.740765,30.665363 164.740765,30.9746094 C164.740765,31.2675796 164.634972,31.5117178 164.423382,31.7070312 C164.211793,31.9023447 163.853723,32 163.349163,32 L145.185101,32 C144.696817,32 144.346886,31.9023447 144.135296,31.7070312 C143.923707,31.5117178 143.817913,31.2675796 143.817913,30.9746094 C143.817913,30.665363 143.923707,30.4171559 144.135296,30.2299805 C144.346886,30.0428051 144.696817,29.9492188 145.185101,29.9492188 L153.241742,29.9492188 L153.241742,3.43554688 L147.333538,3.43554688 C146.845255,3.43554688 146.491254,3.3378916 146.271527,3.14257812 C146.051799,2.94726465 145.941937,2.69498853 145.941937,2.38574219 C145.941937,2.09277197 146.04773,1.84863379 146.25932,1.65332031 C146.470909,1.45800684 146.828979,1.36035156 147.333538,1.36035156 L155.292523,1.36035156 Z M193.967824,21.4775391 C193.967824,24.6025547 192.848858,27.2717988 190.610891,29.4853516 C188.372924,31.6989043 185.675197,32.8056641 182.517629,32.8056641 C179.327509,32.8056641 176.617575,31.6948353 174.387746,29.4731445 C172.157917,27.2514537 171.04302,24.5862786 171.04302,21.4775391 C171.04302,18.3525234 172.157917,15.6792103 174.387746,13.4575195 C176.617575,11.2358287 179.327509,10.125 182.517629,10.125 C185.675197,10.125 188.372924,11.2317598 190.610891,13.4453125 C192.848858,15.6588652 193.967824,18.3362473 193.967824,21.4775391 L193.967824,21.4775391 Z M191.892629,21.4775391 C191.892629,18.9059116 190.977111,16.7168059 189.146047,14.9101562 C187.314983,13.1035066 185.097395,12.2001953 182.493215,12.2001953 C179.889035,12.2001953 177.671447,13.1075756 175.840383,14.9223633 C174.009319,16.737151 173.093801,18.9221877 173.093801,21.4775391 C173.093801,24.0166143 174.009319,26.197582 175.840383,28.0205078 C177.671447,29.8434336 179.889035,30.7548828 182.493215,30.7548828 C185.097395,30.7548828 187.314983,29.8475026 189.146047,28.0327148 C190.977111,26.2179271 191.892629,24.0328904 191.892629,21.4775391 L191.892629,21.4775391 Z M203.028868,10.8574219 L203.028868,14.5927734 C204.249577,13.1116462 205.559785,11.9967485 206.959532,11.2480469 C208.359278,10.4993452 210.01128,10.125 211.915587,10.125 C213.933826,10.125 215.797414,10.5970005 217.506407,11.5410156 C219.2154,12.4850308 220.537815,13.799308 221.473692,15.4838867 C222.409569,17.1684655 222.877501,18.9384673 222.877501,20.7939453 C222.877501,23.7399236 221.823637,26.2586158 219.71588,28.3500977 C217.608122,30.4415795 215.016188,31.4873047 211.940001,31.4873047 C208.277873,31.4873047 205.307525,29.9980618 203.028868,27.0195312 L203.028868,39.3730469 L208.009337,39.3730469 C208.49762,39.3730469 208.847552,39.4666332 209.059141,39.6538086 C209.270731,39.840984 209.376524,40.0891912 209.376524,40.3984375 C209.376524,40.6914077 209.270731,40.9355459 209.059141,41.1308594 C208.847552,41.3261729 208.49762,41.4238281 208.009337,41.4238281 L198.219298,41.4238281 C197.731014,41.4238281 197.381082,41.3302418 197.169493,41.1430664 C196.957903,40.955891 196.85211,40.7076838 196.85211,40.3984375 C196.85211,40.0891912 196.957903,39.840984 197.169493,39.6538086 C197.381082,39.4666332 197.731014,39.3730469 198.219298,39.3730469 L200.978087,39.3730469 L200.978087,12.9326172 L198.219298,12.9326172 C197.731014,12.9326172 197.381082,12.8349619 197.169493,12.6396484 C196.957903,12.444335 196.85211,12.1920588 196.85211,11.8828125 C196.85211,11.5898423 196.957903,11.3457041 197.169493,11.1503906 C197.381082,10.9550771 197.731014,10.8574219 198.219298,10.8574219 L203.028868,10.8574219 Z M220.802305,20.7939453 C220.802305,18.4339075 219.943753,16.4116295 218.226622,14.7270508 C216.509491,13.042472 214.413971,12.2001953 211.940001,12.2001953 C209.449754,12.2001953 207.342028,13.046541 205.616758,14.7392578 C203.891489,16.4319746 203.028868,18.4501836 203.028868,20.7939453 C203.028868,23.1539832 203.891489,25.1803301 205.616758,26.8730469 C207.342028,28.5657637 209.449754,29.4121094 211.940001,29.4121094 C214.397695,29.4121094 216.489146,28.5698326 218.214415,26.8852539 C219.939684,25.2006752 220.802305,23.1702593 220.802305,20.7939453 L220.802305,20.7939453 Z M240.019599,0.334960938 L240.019599,5.6328125 L236.992255,5.6328125 L236.992255,0.334960938 L240.019599,0.334960938 Z M240.092841,10.8574219 L240.092841,29.9492188 L248.149482,29.9492188 C248.654042,29.9492188 249.012111,30.0428051 249.223701,30.2299805 C249.43529,30.4171559 249.541083,30.665363 249.541083,30.9746094 C249.541083,31.2675796 249.43529,31.5117178 249.223701,31.7070312 C249.012111,31.9023447 248.654042,32 248.149482,32 L229.985419,32 C229.497136,32 229.147204,31.9023447 228.935615,31.7070312 C228.724025,31.5117178 228.618232,31.2675796 228.618232,30.9746094 C228.618232,30.665363 228.724025,30.4171559 228.935615,30.2299805 C229.147204,30.0428051 229.497136,29.9492188 229.985419,29.9492188 L238.04206,29.9492188 L238.04206,12.9326172 L232.060615,12.9326172 C231.572331,12.9326172 231.218331,12.8349619 230.998603,12.6396484 C230.778875,12.444335 230.669013,12.2001968 230.669013,11.9072266 C230.669013,11.5979802 230.774806,11.3457041 230.986396,11.1503906 C231.197985,10.9550771 231.556055,10.8574219 232.060615,10.8574219 L240.092841,10.8574219 Z M260.628494,10.8574219 L260.628494,13.9580078 C262.060793,12.5094329 263.354725,11.5084663 264.51033,10.9550781 C265.665935,10.4016899 266.968005,10.125 268.41658,10.125 C269.979088,10.125 271.403227,10.4586555 272.689041,11.1259766 C273.600504,11.6142603 274.426505,12.4239852 275.167068,13.5551758 C275.907632,14.6863663 276.277908,15.8460227 276.277908,17.0341797 L276.277908,29.9492188 L278.011307,29.9492188 C278.49959,29.9492188 278.849522,30.0428051 279.061111,30.2299805 C279.272701,30.4171559 279.378494,30.665363 279.378494,30.9746094 C279.378494,31.2675796 279.272701,31.5117178 279.061111,31.7070312 C278.849522,31.9023447 278.49959,32 278.011307,32 L272.518143,32 C272.013583,32 271.655513,31.9023447 271.443924,31.7070312 C271.232334,31.5117178 271.126541,31.2675796 271.126541,30.9746094 C271.126541,30.665363 271.232334,30.4171559 271.443924,30.2299805 C271.655513,30.0428051 272.013583,29.9492188 272.518143,29.9492188 L274.227127,29.9492188 L274.227127,17.3759766 C274.227127,15.9274016 273.698161,14.7026417 272.640213,13.7016602 C271.582265,12.7006786 270.166263,12.2001953 268.392166,12.2001953 C267.041248,12.2001953 265.869385,12.4728163 264.876541,13.0180664 C263.883698,13.5633165 262.467696,14.9182834 260.628494,17.0830078 L260.628494,29.9492188 L262.94783,29.9492188 C263.436114,29.9492188 263.786045,30.0428051 263.997635,30.2299805 C264.209224,30.4171559 264.315018,30.665363 264.315018,30.9746094 C264.315018,31.2675796 264.209224,31.5117178 263.997635,31.7070312 C263.786045,31.9023447 263.436114,32 262.94783,32 L256.258377,32 C255.770093,32 255.420162,31.9023447 255.208572,31.7070312 C254.996983,31.5117178 254.891189,31.2675796 254.891189,30.9746094 C254.891189,30.665363 254.996983,30.4171559 255.208572,30.2299805 C255.420162,30.0428051 255.770093,29.9492188 256.258377,29.9492188 L258.577713,29.9492188 L258.577713,12.9326172 L256.844314,12.9326172 C256.356031,12.9326172 256.006099,12.8349619 255.79451,12.6396484 C255.58292,12.444335 255.477127,12.1920588 255.477127,11.8828125 C255.477127,11.5898423 255.58292,11.3457041 255.79451,11.1503906 C256.006099,10.9550771 256.356031,10.8574219 256.844314,10.8574219 L260.628494,10.8574219 Z M302.404382,14.6171875 L302.404382,10.8574219 L307.213952,10.8574219 C307.702236,10.8574219 308.052167,10.9550771 308.263757,11.1503906 C308.475346,11.3457041 308.581139,11.5979802 308.581139,11.9072266 C308.581139,12.2001968 308.475346,12.444335 308.263757,12.6396484 C308.052167,12.8349619 307.702236,12.9326172 307.213952,12.9326172 L304.455163,12.9326172 L304.455163,33.4160156 C304.455163,34.78321 304.162197,36.0039009 303.576257,37.078125 C303.18563,37.7942744 302.534594,38.5348269 301.623132,39.2998047 C300.711669,40.0647825 299.881599,40.6100244 299.132897,40.9355469 C298.384195,41.2610693 297.383229,41.4238281 296.129967,41.4238281 L290.319421,41.4238281 C289.831137,41.4238281 289.481205,41.3302418 289.269616,41.1430664 C289.058026,40.955891 288.952233,40.7076838 288.952233,40.3984375 C288.952233,40.0891912 289.058026,39.836915 289.269616,39.6416016 C289.481205,39.4462881 289.831137,39.3486328 290.319421,39.3486328 L296.20321,39.3730469 C297.407643,39.3730469 298.494058,39.0638052 299.462487,38.4453125 C300.430916,37.8268198 301.232503,36.9235085 301.867272,35.7353516 C302.225347,35.0517544 302.404382,34.1809949 302.404382,33.1230469 L302.404382,26.9707031 C300.207105,29.9817859 297.375102,31.4873047 293.908288,31.4873047 C291.092518,31.4873047 288.663344,30.4415795 286.62069,28.3500977 C284.578037,26.2586158 283.556725,23.7399236 283.556725,20.7939453 C283.556725,17.847967 284.578037,15.3333437 286.62069,13.25 C288.663344,11.1666563 291.092518,10.125 293.908288,10.125 C297.375102,10.125 300.207105,11.6223809 302.404382,14.6171875 L302.404382,14.6171875 Z M302.404382,20.7939453 C302.404382,18.3850791 301.578381,16.3505942 299.926354,14.6904297 C298.274328,13.0302651 296.300877,12.2001953 294.005944,12.2001953 C291.711011,12.2001953 289.741629,13.0343341 288.097741,14.7026367 C286.453852,16.3709393 285.631921,18.4013552 285.631921,20.7939453 C285.631921,23.2028115 286.453852,25.2413654 288.097741,26.909668 C289.741629,28.5779706 291.711011,29.4121094 294.005944,29.4121094 C296.300877,29.4121094 298.274328,28.5779706 299.926354,26.909668 C301.578381,25.2413654 302.404382,23.2028115 302.404382,20.7939453 L302.404382,20.7939453 Z" fill="#EE0E51"></path>
                    <path d="M336.367769,17.7666016 L314.1998,30.1201172 C313.841725,30.3154307 313.573173,30.4130859 313.394136,30.4130859 C313.117442,30.4130859 312.877373,30.3113617 312.673921,30.1079102 C312.47047,29.9044586 312.368745,29.6643894 312.368745,29.3876953 C312.368745,28.9807922 312.645435,28.6227229 313.198824,28.3134766 L332.192964,17.7666016 L313.223238,7.21972656 C312.669849,6.91048022 312.39316,6.55241089 312.39316,6.14550781 C312.39316,5.86881372 312.494884,5.62874451 312.698335,5.42529297 C312.901787,5.22184143 313.141856,5.12011719 313.41855,5.12011719 C313.597587,5.12011719 313.866139,5.21777246 314.224214,5.41308594 L336.367769,17.7666016 Z M0.392578125,17.7666016 L22.5605469,5.41308594 C22.9186216,5.21777246 23.1871736,5.12011719 23.3662109,5.12011719 C23.642905,5.12011719 23.8829742,5.22184143 24.0864258,5.42529297 C24.2898773,5.62874451 24.3916016,5.86881372 24.3916016,6.14550781 C24.3916016,6.55241089 24.1149116,6.91048022 23.5615234,7.21972656 L4.56738281,17.7666016 L23.5371094,28.3134766 C24.0904976,28.6227229 24.3671875,28.9807922 24.3671875,29.3876953 C24.3671875,29.6643894 24.2654633,29.9044586 24.0620117,30.1079102 C23.8585602,30.3113617 23.618491,30.4130859 23.3417969,30.4130859 C23.1627595,30.4130859 22.8942075,30.3154307 22.5361328,30.1201172 L0.392578125,17.7666016 Z" id="Path" fill="#383838"></path>
                </g>
                <g id="designing_" transform="translate(0.000000, 62.000000)">
                    <g id="Rectangle-97">
                        <mask id="mask-2" sketch:name="Mask" fill="white">
                            <use xlink:href="#path-1"></use>
                        </mask>
                        <use id="Mask" fill="#383838" sketch:type="MSShapeGroup" xlink:href="#path-1"></use>
                        <rect fill="#EE0E51" sketch:type="MSShapeGroup" mask="url(#mask-2)" x="-12" y="-6" width="233" height="37"></rect>
                    </g>
                </g>
                <path d="M103.757812,29 L101.21875,29 L101.21875,0.5625 L105.28125,0.5625 L114.578125,21.265625 L116.765625,26.3632812 L118.933594,21.2851562 L128.40625,0.5625 L132.3125,0.5625 L132.3125,29 L129.734375,29 L129.734375,10.640625 L129.734375,1.8515625 L127.917969,6.55859375 L117.644531,29 L115.789062,29 L105.886719,7.046875 L103.757812,2.046875 L103.757812,10.6992188 L103.757812,29 Z M137,8.9609375 L139.558594,8.9609375 L146.648438,27.2421875 L153.992188,8.9609375 L156.492188,8.9609375 L147.449219,30.640625 C147.084634,31.5130252 146.661461,32.3365847 146.179688,33.1113281 C145.697914,33.8860716 145.1543,34.5761688 144.548828,35.1816406 C143.943356,35.7871124 143.276045,36.298175 142.546875,36.7148438 C141.817705,37.1315125 141.023442,37.417968 140.164062,37.5742188 L138.855469,35.9921875 C139.910162,35.7187486 140.782549,35.3671896 141.472656,34.9375 C142.162764,34.5078104 142.729164,34.039065 143.171875,33.53125 C143.614586,33.023435 143.966145,32.4960965 144.226562,31.9492188 C144.48698,31.402341 144.721353,30.8815129 144.929688,30.3867188 L145.417969,29.1953125 L137,8.9609375 Z M174.519531,37.6523438 L172.097656,37.6523438 L172.097656,14.0195312 C172.097656,13.6549461 172.091146,13.0527386 172.078125,12.2128906 C172.065104,11.3730427 172.026042,10.2890691 171.960938,8.9609375 L174.480469,8.9609375 L174.539062,13.0234375 C175.333337,11.421867 176.414056,10.2630244 177.78125,9.546875 C179.148444,8.83072559 180.704418,8.47265625 182.449219,8.47265625 C183.907559,8.47265625 185.173823,8.74283584 186.248047,9.28320312 C187.322271,9.82357041 188.214189,10.555985 188.923828,11.4804688 C189.633467,12.4049525 190.164061,13.4856709 190.515625,14.7226562 C190.867189,15.9596416 191.042969,17.2747326 191.042969,18.6679688 C191.042969,20.0872467 190.854169,21.4479102 190.476562,22.75 C190.098956,24.0520898 189.535811,25.1979117 188.787109,26.1875 C188.038408,27.1770883 187.094407,27.968096 185.955078,28.5605469 C184.81575,29.1529978 183.484383,29.4492188 181.960938,29.4492188 C178.692692,29.4492188 176.212248,28.0364725 174.519531,25.2109375 L174.519531,37.6523438 Z M174.5,19.3515625 C174.5,20.5234434 174.656248,21.6074169 174.96875,22.6035156 C175.281252,23.5996144 175.736976,24.4654911 176.335938,25.2011719 C176.934899,25.9368526 177.673824,26.5097636 178.552734,26.9199219 C179.431645,27.3300802 180.430984,27.5351562 181.550781,27.5351562 C182.774746,27.5351562 183.822912,27.2975284 184.695312,26.8222656 C185.567713,26.3470028 186.283851,25.7089884 186.84375,24.9082031 C187.403649,24.1074179 187.817056,23.1829479 188.083984,22.1347656 C188.350913,21.0865833 188.484375,19.9830787 188.484375,18.8242188 C188.484375,17.7434842 188.367189,16.6985728 188.132812,15.6894531 C187.898436,14.6803335 187.51107,13.7851602 186.970703,13.0039062 C186.430336,12.2226523 185.723963,11.5976586 184.851562,11.1289062 C183.979162,10.6601539 182.911465,10.4257812 181.648438,10.4257812 C180.307285,10.4257812 179.180994,10.6731746 178.269531,11.1679688 C177.358068,11.6627629 176.622399,12.3203084 176.0625,13.140625 C175.502601,13.9609416 175.102215,14.9081978 174.861328,15.9824219 C174.620442,17.056646 174.5,18.1796816 174.5,19.3515625 L174.5,19.3515625 Z M204.519531,8.47265625 C205.457036,8.47265625 206.300126,8.5735667 207.048828,8.77539062 C207.79753,8.97721455 208.481117,9.26367002 209.099609,9.63476562 C209.718102,10.0058612 210.284503,10.4583307 210.798828,10.9921875 C211.313154,11.5260443 211.804685,12.131507 212.273438,12.8085938 L212.371094,8.9609375 L214.714844,8.9609375 L214.714844,13.7265625 L214.714844,29 L212.253906,29 L212.292969,24.7226562 C212.110676,25.2565131 211.791669,25.8001274 211.335938,26.3535156 C210.880206,26.9069038 210.313805,27.4147112 209.636719,27.8769531 C208.959632,28.339195 208.181645,28.7167954 207.302734,29.0097656 C206.423824,29.3027358 205.476568,29.4492188 204.460938,29.4492188 C202.807283,29.4492188 201.384772,29.1269563 200.193359,28.4824219 C199.001947,27.8378874 198.022139,27.0045624 197.253906,25.9824219 C196.485673,24.9602813 195.919273,23.8144595 195.554688,22.5449219 C195.190102,21.2753843 195.007812,20.0156312 195.007812,18.765625 C195.007812,17.4765561 195.203123,16.2135479 195.59375,14.9765625 C195.984377,13.7395771 196.576819,12.6393277 197.371094,11.6757812 C198.165369,10.7122348 199.154942,9.93750293 200.339844,9.3515625 C201.524746,8.76562207 202.917961,8.47265625 204.519531,8.47265625 L204.519531,8.47265625 Z M212.351562,18.7460938 C212.273437,17.691401 212.094402,16.6660206 211.814453,15.6699219 C211.534504,14.6738231 211.101565,13.7851602 210.515625,13.0039062 C209.929685,12.2226523 209.164718,11.5976586 208.220703,11.1289062 C207.276688,10.6601539 206.10157,10.4257812 204.695312,10.4257812 C203.380202,10.4257812 202.257166,10.679685 201.326172,11.1875 C200.395178,11.695315 199.630211,12.3561157 199.03125,13.1699219 C198.432289,13.983728 197.996095,14.8919221 197.722656,15.8945312 C197.449217,16.8971404 197.3125,17.8932242 197.3125,18.8828125 C197.3125,19.8724008 197.416666,20.8782501 197.625,21.9003906 C197.833334,22.9225312 198.21419,23.8502563 198.767578,24.6835938 C199.320966,25.5169312 200.089188,26.2005182 201.072266,26.734375 C202.055343,27.2682318 203.321607,27.5351562 204.871094,27.5351562 C205.912766,27.5351562 206.889318,27.3658871 207.800781,27.0273438 C208.712244,26.6888004 209.503252,26.1744826 210.173828,25.484375 C210.844404,24.7942674 211.374998,23.9283906 211.765625,22.8867188 C212.156252,21.8450469 212.351562,20.6276111 212.351562,19.234375 L212.351562,18.7460938 Z M232.800781,11.5390625 C232.227862,11.1874982 231.443364,10.9140635 230.447266,10.71875 C229.451167,10.5234365 228.360683,10.4257812 227.175781,10.4257812 C226.485674,10.4257812 225.847659,10.5006503 225.261719,10.6503906 C224.675778,10.800131 224.171226,11.0149726 223.748047,11.2949219 C223.324868,11.5748712 222.996095,11.9134095 222.761719,12.3105469 C222.527343,12.7076843 222.410156,13.1601537 222.410156,13.6679688 C222.410156,14.3190137 222.504556,14.8333314 222.693359,15.2109375 C222.882162,15.5885436 223.158852,15.8977853 223.523438,16.1386719 C223.888023,16.3795585 224.337237,16.574869 224.871094,16.7246094 C225.404951,16.8743497 226.016924,17.0371085 226.707031,17.2128906 C227.397139,17.3886728 228.15885,17.6100247 228.992188,17.8769531 C229.825525,18.1438815 230.723954,18.5117164 231.6875,18.9804688 C232.039064,19.1497404 232.403644,19.3548165 232.78125,19.5957031 C233.158856,19.8365897 233.503905,20.1393211 233.816406,20.5039062 C234.128908,20.8684914 234.382812,21.3014298 234.578125,21.8027344 C234.773438,22.304039 234.871094,22.8932258 234.871094,23.5703125 C234.871094,24.5729217 234.639976,25.4420536 234.177734,26.1777344 C233.715492,26.9134151 233.106775,27.5253882 232.351562,28.0136719 C231.59635,28.5019556 230.733729,28.8632801 229.763672,29.0976562 C228.793615,29.3320324 227.800786,29.4492188 226.785156,29.4492188 C226.095049,29.4492188 225.414717,29.4134118 224.744141,29.3417969 C224.073564,29.2701819 223.438805,29.1529956 222.839844,28.9902344 C222.240882,28.8274731 221.690758,28.6158867 221.189453,28.3554688 C220.688149,28.0950508 220.268231,27.7760436 219.929688,27.3984375 L220.535156,25.5625 C220.834637,25.9010434 221.212237,26.1940092 221.667969,26.4414062 C222.1237,26.6888033 222.621742,26.8938794 223.162109,27.0566406 C223.702477,27.2194019 224.275388,27.3398434 224.880859,27.4179688 C225.486331,27.4960941 226.095049,27.5351562 226.707031,27.5351562 C227.527348,27.5351562 228.282549,27.457032 228.972656,27.3007812 C229.662764,27.1445305 230.258461,26.9166682 230.759766,26.6171875 C231.26107,26.3177068 231.648436,25.9401064 231.921875,25.484375 C232.195314,25.0286436 232.332031,24.5013051 232.332031,23.9023438 C232.332031,23.2122361 232.175783,22.6393252 231.863281,22.1835938 C231.55078,21.7278623 231.114586,21.3437516 230.554688,21.03125 C229.994789,20.7187484 229.337243,20.4485688 228.582031,20.2207031 C227.826819,19.9928374 227.000004,19.7552096 226.101562,19.5078125 C225.151037,19.2213527 224.294926,18.9218766 223.533203,18.609375 C222.771481,18.2968734 222.120445,17.9257834 221.580078,17.4960938 C221.039711,17.0664041 220.623048,16.5553415 220.330078,15.9628906 C220.037108,15.3704397 219.890625,14.6445355 219.890625,13.7851562 C219.890625,12.8867143 220.095701,12.1054721 220.505859,11.4414062 C220.916018,10.7773404 221.459632,10.2239605 222.136719,9.78125 C222.813805,9.33853945 223.578772,9.0097667 224.431641,8.79492188 C225.284509,8.58007705 226.160152,8.47265625 227.058594,8.47265625 C228.360684,8.47265625 229.561843,8.58984258 230.662109,8.82421875 C231.762375,9.05859492 232.664059,9.44921602 233.367188,9.99609375 L232.800781,11.5390625 Z M252.46875,11.5390625 C251.89583,11.1874982 251.111333,10.9140635 250.115234,10.71875 C249.119136,10.5234365 248.028652,10.4257812 246.84375,10.4257812 C246.153642,10.4257812 245.515628,10.5006503 244.929688,10.6503906 C244.343747,10.800131 243.839195,11.0149726 243.416016,11.2949219 C242.992836,11.5748712 242.664064,11.9134095 242.429688,12.3105469 C242.195311,12.7076843 242.078125,13.1601537 242.078125,13.6679688 C242.078125,14.3190137 242.172525,14.8333314 242.361328,15.2109375 C242.550131,15.5885436 242.826821,15.8977853 243.191406,16.1386719 C243.555991,16.3795585 244.005206,16.574869 244.539062,16.7246094 C245.072919,16.8743497 245.684892,17.0371085 246.375,17.2128906 C247.065108,17.3886728 247.826819,17.6100247 248.660156,17.8769531 C249.493494,18.1438815 250.391922,18.5117164 251.355469,18.9804688 C251.707033,19.1497404 252.071613,19.3548165 252.449219,19.5957031 C252.826825,19.8365897 253.171873,20.1393211 253.484375,20.5039062 C253.796877,20.8684914 254.05078,21.3014298 254.246094,21.8027344 C254.441407,22.304039 254.539062,22.8932258 254.539062,23.5703125 C254.539062,24.5729217 254.307945,25.4420536 253.845703,26.1777344 C253.383461,26.9134151 252.774743,27.5253882 252.019531,28.0136719 C251.264319,28.5019556 250.401698,28.8632801 249.431641,29.0976562 C248.461584,29.3320324 247.468755,29.4492188 246.453125,29.4492188 C245.763017,29.4492188 245.082686,29.4134118 244.412109,29.3417969 C243.741533,29.2701819 243.106774,29.1529956 242.507812,28.9902344 C241.908851,28.8274731 241.358726,28.6158867 240.857422,28.3554688 C240.356117,28.0950508 239.9362,27.7760436 239.597656,27.3984375 L240.203125,25.5625 C240.502606,25.9010434 240.880206,26.1940092 241.335938,26.4414062 C241.791669,26.6888033 242.289711,26.8938794 242.830078,27.0566406 C243.370445,27.2194019 243.943356,27.3398434 244.548828,27.4179688 C245.1543,27.4960941 245.763018,27.5351562 246.375,27.5351562 C247.195317,27.5351562 247.950517,27.457032 248.640625,27.3007812 C249.330733,27.1445305 249.92643,26.9166682 250.427734,26.6171875 C250.929039,26.3177068 251.316405,25.9401064 251.589844,25.484375 C251.863283,25.0286436 252,24.5013051 252,23.9023438 C252,23.2122361 251.843752,22.6393252 251.53125,22.1835938 C251.218748,21.7278623 250.782555,21.3437516 250.222656,21.03125 C249.662758,20.7187484 249.005212,20.4485688 248.25,20.2207031 C247.494788,19.9928374 246.667973,19.7552096 245.769531,19.5078125 C244.819006,19.2213527 243.962894,18.9218766 243.201172,18.609375 C242.439449,18.2968734 241.788414,17.9257834 241.248047,17.4960938 C240.70768,17.0664041 240.291017,16.5553415 239.998047,15.9628906 C239.705077,15.3704397 239.558594,14.6445355 239.558594,13.7851562 C239.558594,12.8867143 239.76367,12.1054721 240.173828,11.4414062 C240.583986,10.7773404 241.127601,10.2239605 241.804688,9.78125 C242.481774,9.33853945 243.246741,9.0097667 244.099609,8.79492188 C244.952478,8.58007705 245.828121,8.47265625 246.726562,8.47265625 C248.028652,8.47265625 249.229812,8.58984258 250.330078,8.82421875 C251.430344,9.05859492 252.332028,9.44921602 253.035156,9.99609375 L252.46875,11.5390625 Z M262.664062,0.1328125 L262.664062,2.5546875 L260.417969,2.5546875 L260.417969,0.1328125 L262.664062,0.1328125 Z M260.28125,8.9609375 L262.703125,8.9609375 L262.703125,29 L260.28125,29 L260.28125,8.9609375 Z M278.699219,8.47265625 C280.365894,8.47265625 281.824213,8.74283584 283.074219,9.28320312 C284.324225,9.82357041 285.369136,10.5657505 286.208984,11.5097656 C287.048832,12.4537808 287.680336,13.5637957 288.103516,14.8398438 C288.526695,16.1158918 288.738281,17.4830656 288.738281,18.9414062 C288.738281,20.3737051 288.513674,21.724603 288.064453,22.9941406 C287.615232,24.2636782 286.960942,25.3769483 286.101562,26.3339844 C285.242183,27.2910204 284.177741,28.0494764 282.908203,28.609375 C281.638666,29.1692736 280.183602,29.4492188 278.542969,29.4492188 C276.915356,29.4492188 275.476569,29.1822943 274.226562,28.6484375 C272.976556,28.1145807 271.925134,27.3789109 271.072266,26.4414062 C270.219397,25.5039016 269.574872,24.4036521 269.138672,23.140625 C268.702472,21.8775979 268.484375,20.5169344 268.484375,19.0585938 C268.484375,17.6002531 268.708982,16.2265689 269.158203,14.9375 C269.607424,13.6484311 270.26497,12.5253954 271.130859,11.5683594 C271.996749,10.6113233 273.064447,9.85612256 274.333984,9.30273438 C275.603522,8.74934619 277.058586,8.47265625 278.699219,8.47265625 L278.699219,8.47265625 Z M286.199219,19.0195312 C286.199219,17.8606713 286.046225,16.7604219 285.740234,15.71875 C285.434243,14.6770781 284.968753,13.7656289 284.34375,12.984375 C283.718747,12.2031211 282.927739,11.5813825 281.970703,11.1191406 C281.013667,10.6568987 279.877611,10.4257812 278.5625,10.4257812 C277.312494,10.4257812 276.218755,10.6634091 275.28125,11.1386719 C274.343745,11.6139347 273.555993,12.2519491 272.917969,13.0527344 C272.279945,13.8535196 271.801434,14.7714792 271.482422,15.8066406 C271.16341,16.8418021 271.003906,17.9192652 271.003906,19.0390625 C271.003906,20.1588598 271.16341,21.2330678 271.482422,22.2617188 C271.801434,23.2903697 272.2832,24.1953086 272.927734,24.9765625 C273.572269,25.7578164 274.373042,26.379555 275.330078,26.8417969 C276.287114,27.3040388 277.403639,27.5351562 278.679688,27.5351562 C279.929694,27.5351562 281.026688,27.3007836 281.970703,26.8320312 C282.914718,26.3632789 283.699216,25.7382852 284.324219,24.9570312 C284.949222,24.1757773 285.417967,23.2708385 285.730469,22.2421875 C286.04297,21.2135365 286.199219,20.1393285 286.199219,19.0195312 L286.199219,19.0195312 Z M296.589844,29 L294.167969,29 L294.167969,13.609375 L293.992188,8.9609375 L296.53125,8.9609375 L296.648438,12.8867188 C298.223966,9.9439957 300.6979,8.47265625 304.070312,8.47265625 C305.04688,8.47265625 305.902991,8.58984258 306.638672,8.82421875 C307.374353,9.05859492 308.005857,9.38085732 308.533203,9.79101562 C309.06055,10.2011739 309.493488,10.6796848 309.832031,11.2265625 C310.170575,11.7734402 310.430989,12.3626271 310.613281,12.9941406 C310.795574,13.6256542 310.925781,14.2831997 311.003906,14.9667969 C311.082032,15.650394 311.121094,16.3307258 311.121094,17.0078125 C311.134115,17.3593768 311.140625,18.0136671 311.140625,18.9707031 L311.140625,22.4960938 L311.140625,29 L308.71875,29 L308.71875,18.4140625 C308.71875,17.710934 308.715495,17.1575541 308.708984,16.7539062 C308.702474,16.3502584 308.692708,16.0898443 308.679688,15.9726562 C308.614583,14.1367096 308.123051,12.7532599 307.205078,11.8222656 C306.287105,10.8912714 305.027352,10.4257812 303.425781,10.4257812 C302.696611,10.4257812 302.02279,10.5201813 301.404297,10.7089844 C300.785804,10.8977874 300.225914,11.1484359 299.724609,11.4609375 C299.223305,11.7734391 298.783856,12.1282532 298.40625,12.5253906 C298.028644,12.922528 297.696616,13.3326802 297.410156,13.7558594 C297.123696,14.1790386 296.915365,14.5924459 296.785156,14.9960938 C296.654947,15.3997416 296.589844,15.7643213 296.589844,16.0898438 L296.589844,29 Z M332.136719,0.1328125 L332.136719,2.5546875 L329.890625,2.5546875 L329.890625,0.1328125 L332.136719,0.1328125 Z M329.753906,8.9609375 L332.175781,8.9609375 L332.175781,29 L329.753906,29 L329.753906,8.9609375 Z M351.433594,11.5390625 C350.860674,11.1874982 350.076177,10.9140635 349.080078,10.71875 C348.083979,10.5234365 346.993496,10.4257812 345.808594,10.4257812 C345.118486,10.4257812 344.480472,10.5006503 343.894531,10.6503906 C343.308591,10.800131 342.804039,11.0149726 342.380859,11.2949219 C341.95768,11.5748712 341.628907,11.9134095 341.394531,12.3105469 C341.160155,12.7076843 341.042969,13.1601537 341.042969,13.6679688 C341.042969,14.3190137 341.137369,14.8333314 341.326172,15.2109375 C341.514975,15.5885436 341.791665,15.8977853 342.15625,16.1386719 C342.520835,16.3795585 342.970049,16.574869 343.503906,16.7246094 C344.037763,16.8743497 344.649736,17.0371085 345.339844,17.2128906 C346.029951,17.3886728 346.791663,17.6100247 347.625,17.8769531 C348.458338,18.1438815 349.356766,18.5117164 350.320312,18.9804688 C350.671877,19.1497404 351.036456,19.3548165 351.414062,19.5957031 C351.791669,19.8365897 352.136717,20.1393211 352.449219,20.5039062 C352.76172,20.8684914 353.015624,21.3014298 353.210938,21.8027344 C353.406251,22.304039 353.503906,22.8932258 353.503906,23.5703125 C353.503906,24.5729217 353.272789,25.4420536 352.810547,26.1777344 C352.348305,26.9134151 351.739587,27.5253882 350.984375,28.0136719 C350.229163,28.5019556 349.366541,28.8632801 348.396484,29.0976562 C347.426427,29.3320324 346.433599,29.4492188 345.417969,29.4492188 C344.727861,29.4492188 344.047529,29.4134118 343.376953,29.3417969 C342.706377,29.2701819 342.071618,29.1529956 341.472656,28.9902344 C340.873695,28.8274731 340.32357,28.6158867 339.822266,28.3554688 C339.320961,28.0950508 338.901043,27.7760436 338.5625,27.3984375 L339.167969,25.5625 C339.467449,25.9010434 339.84505,26.1940092 340.300781,26.4414062 C340.756513,26.6888033 341.254555,26.8938794 341.794922,27.0566406 C342.335289,27.2194019 342.9082,27.3398434 343.513672,27.4179688 C344.119144,27.4960941 344.727862,27.5351562 345.339844,27.5351562 C346.16016,27.5351562 346.915361,27.457032 347.605469,27.3007812 C348.295576,27.1445305 348.891274,26.9166682 349.392578,26.6171875 C349.893883,26.3177068 350.281249,25.9401064 350.554688,25.484375 C350.828126,25.0286436 350.964844,24.5013051 350.964844,23.9023438 C350.964844,23.2122361 350.808595,22.6393252 350.496094,22.1835938 C350.183592,21.7278623 349.747399,21.3437516 349.1875,21.03125 C348.627601,20.7187484 347.970056,20.4485688 347.214844,20.2207031 C346.459632,19.9928374 345.632817,19.7552096 344.734375,19.5078125 C343.783849,19.2213527 342.927738,18.9218766 342.166016,18.609375 C341.404293,18.2968734 340.753258,17.9257834 340.212891,17.4960938 C339.672523,17.0664041 339.255861,16.5553415 338.962891,15.9628906 C338.66992,15.3704397 338.523438,14.6445355 338.523438,13.7851562 C338.523438,12.8867143 338.728514,12.1054721 339.138672,11.4414062 C339.54883,10.7773404 340.092445,10.2239605 340.769531,9.78125 C341.446618,9.33853945 342.211584,9.0097667 343.064453,8.79492188 C343.917322,8.58007705 344.792964,8.47265625 345.691406,8.47265625 C346.993496,8.47265625 348.194656,8.58984258 349.294922,8.82421875 C350.395188,9.05859492 351.296871,9.44921602 352,9.99609375 L351.433594,11.5390625 Z" id="My-passion-is" fill="#383838" sketch:type="MSShapeGroup"></path>
                <path d="M198.792969,169 L196.371094,169 L196.371094,150.5625 L192.328125,150.5625 L192.328125,148.960938 L196.371094,148.960938 L196.371094,145.757812 C196.345052,144.70312 196.439452,143.762374 196.654297,142.935547 C196.869142,142.10872 197.204425,141.405602 197.660156,140.826172 C198.115888,140.246742 198.698564,139.807293 199.408203,139.507812 C200.117842,139.208332 200.967443,139.058594 201.957031,139.058594 C202.243491,139.058594 202.490884,139.068359 202.699219,139.087891 C202.907553,139.107422 203.096353,139.130208 203.265625,139.15625 C203.434897,139.182292 203.5944,139.218099 203.744141,139.263672 C203.893881,139.309245 204.066405,139.358073 204.261719,139.410156 L204.242188,141.285156 C204.085937,141.233073 203.86784,141.1875 203.587891,141.148438 C203.307941,141.109375 202.933596,141.089844 202.464844,141.089844 C201.68359,141.089844 201.045575,141.190754 200.550781,141.392578 C200.055987,141.594402 199.671876,141.897133 199.398438,142.300781 C199.124999,142.704429 198.952474,143.199216 198.880859,143.785156 C198.809244,144.371097 198.779948,145.048173 198.792969,145.816406 L198.792969,148.960938 L203.773438,148.960938 L203.773438,150.5625 L198.792969,150.5625 L198.792969,169 Z M217.074219,148.472656 C218.740894,148.472656 220.199212,148.742836 221.449219,149.283203 C222.699225,149.82357 223.744136,150.56575 224.583984,151.509766 C225.423832,152.453781 226.055336,153.563796 226.478516,154.839844 C226.901695,156.115892 227.113281,157.483066 227.113281,158.941406 C227.113281,160.373705 226.888674,161.724603 226.439453,162.994141 C225.990232,164.263678 225.335942,165.376948 224.476562,166.333984 C223.617183,167.29102 222.552741,168.049476 221.283203,168.609375 C220.013666,169.169274 218.558602,169.449219 216.917969,169.449219 C215.290356,169.449219 213.851569,169.182294 212.601562,168.648438 C211.351556,168.114581 210.300134,167.378911 209.447266,166.441406 C208.594397,165.503902 207.949872,164.403652 207.513672,163.140625 C207.077472,161.877598 206.859375,160.516934 206.859375,159.058594 C206.859375,157.600253 207.083982,156.226569 207.533203,154.9375 C207.982424,153.648431 208.63997,152.525395 209.505859,151.568359 C210.371749,150.611323 211.439447,149.856123 212.708984,149.302734 C213.978522,148.749346 215.433586,148.472656 217.074219,148.472656 L217.074219,148.472656 Z M224.574219,159.019531 C224.574219,157.860671 224.421225,156.760422 224.115234,155.71875 C223.809243,154.677078 223.343753,153.765629 222.71875,152.984375 C222.093747,152.203121 221.302739,151.581383 220.345703,151.119141 C219.388667,150.656899 218.252611,150.425781 216.9375,150.425781 C215.687494,150.425781 214.593755,150.663409 213.65625,151.138672 C212.718745,151.613935 211.930993,152.251949 211.292969,153.052734 C210.654945,153.85352 210.176434,154.771479 209.857422,155.806641 C209.53841,156.841802 209.378906,157.919265 209.378906,159.039062 C209.378906,160.15886 209.53841,161.233068 209.857422,162.261719 C210.176434,163.29037 210.6582,164.195309 211.302734,164.976562 C211.947269,165.757816 212.748042,166.379555 213.705078,166.841797 C214.662114,167.304039 215.778639,167.535156 217.054688,167.535156 C218.304694,167.535156 219.401688,167.300784 220.345703,166.832031 C221.289718,166.363279 222.074216,165.738285 222.699219,164.957031 C223.324222,164.175777 223.792967,163.270838 224.105469,162.242188 C224.41797,161.213537 224.574219,160.139329 224.574219,159.019531 L224.574219,159.019531 Z M235.003906,169 L232.582031,169 L232.582031,153.609375 L232.386719,148.960938 L234.925781,148.960938 L235.003906,153.804688 C235.212241,152.867183 235.514972,152.063154 235.912109,151.392578 C236.309247,150.722002 236.761716,150.171877 237.269531,149.742188 C237.777346,149.312498 238.350257,148.996746 238.988281,148.794922 C239.626305,148.593098 240.316403,148.485677 241.058594,148.472656 C241.4362,148.472656 241.764973,148.482422 242.044922,148.501953 C242.324871,148.521484 242.555989,148.557291 242.738281,148.609375 L242.757812,150.835938 C242.640624,150.783854 242.429038,150.735026 242.123047,150.689453 C241.817056,150.64388 241.416669,150.621094 240.921875,150.621094 C240.062496,150.621094 239.274743,150.787108 238.558594,151.119141 C237.842444,151.451174 237.227216,151.929684 236.712891,152.554688 C236.198565,153.179691 235.788413,153.934891 235.482422,154.820312 C235.176431,155.705734 235.016927,156.695307 235.003906,157.789062 L235.003906,169 Z M260.277344,150.5625 L256.234375,150.5625 L256.234375,148.960938 L260.277344,148.960938 L260.296875,143.335938 L262.699219,142.671875 L262.699219,148.960938 L267.855469,148.960938 L267.855469,150.5625 L262.699219,150.5625 L262.699219,163.082031 C262.699219,163.850264 262.71875,164.52083 262.757812,165.09375 C262.796875,165.66667 262.901041,166.13867 263.070312,166.509766 C263.239584,166.880861 263.535805,167.157551 263.958984,167.339844 C264.382164,167.522136 264.984371,167.613281 265.765625,167.613281 C266.70313,167.613281 267.419268,167.489585 267.914062,167.242188 L267.914062,168.902344 C267.627603,169.097657 267.29232,169.23763 266.908203,169.322266 C266.524087,169.406901 266.084638,169.449219 265.589844,169.449219 C264.509109,169.449219 263.620446,169.332032 262.923828,169.097656 C262.22721,168.86328 261.683596,168.508466 261.292969,168.033203 C260.902342,167.55794 260.635417,166.962243 260.492188,166.246094 C260.348958,165.529944 260.277344,164.690109 260.277344,163.726562 L260.277344,150.5625 Z M275.335938,139.546875 L275.335938,152.886719 C276.195317,151.350253 277.227208,150.230472 278.431641,149.527344 C279.636074,148.824215 281.091137,148.472656 282.796875,148.472656 C284.098965,148.472656 285.186194,148.677732 286.058594,149.087891 C286.930994,149.498049 287.634112,150.041663 288.167969,150.71875 C288.701826,151.395837 289.095702,152.164058 289.349609,153.023438 C289.603517,153.882817 289.763021,154.761714 289.828125,155.660156 L289.867188,156.519531 L289.867188,169 L287.445312,169 L287.445312,158.648438 C287.445312,158.166664 287.438802,157.636071 287.425781,157.056641 C287.41276,156.477211 287.40625,156.18099 287.40625,156.167969 C287.315104,154.319001 286.817062,152.899745 285.912109,151.910156 C285.007157,150.920568 283.656259,150.425781 281.859375,150.425781 C280.77864,150.425781 279.831384,150.608071 279.017578,150.972656 C278.203772,151.337241 277.52344,151.838538 276.976562,152.476562 C276.429685,153.114587 276.016277,153.866532 275.736328,154.732422 C275.456379,155.598312 275.322917,156.526037 275.335938,157.515625 L275.335938,169 L272.914062,169 L272.914062,139.546875 L275.335938,139.546875 Z M298.226562,157.417969 L311.644531,157.417969 L311.644531,157.378906 L311.644531,157.515625 C311.605469,156.460932 311.458986,155.500655 311.205078,154.634766 C310.951171,153.768876 310.570315,153.023441 310.0625,152.398438 C309.554685,151.773434 308.906905,151.288413 308.119141,150.943359 C307.331376,150.598306 306.38412,150.425781 305.277344,150.425781 C304.196609,150.425781 303.239587,150.611326 302.40625,150.982422 C301.572913,151.353517 300.863284,151.85807 300.277344,152.496094 C299.691403,153.134118 299.225913,153.876298 298.880859,154.722656 C298.535806,155.569015 298.317709,156.467443 298.226562,157.417969 L298.226562,157.417969 Z M312.542969,165.054688 L313.246094,166.929688 C312.269526,167.828129 311.13347,168.472654 309.837891,168.863281 C308.542311,169.253908 307.080737,169.449219 305.453125,169.449219 C303.903638,169.449219 302.520188,169.19206 301.302734,168.677734 C300.08528,168.163409 299.056645,167.44727 298.216797,166.529297 C297.376949,165.611324 296.735679,164.517584 296.292969,163.248047 C295.850258,161.978509 295.628906,160.588549 295.628906,159.078125 C295.628906,157.632805 295.850258,156.265631 296.292969,154.976562 C296.735679,153.687494 297.373694,152.561203 298.207031,151.597656 C299.040369,150.63411 300.059239,149.872399 301.263672,149.3125 C302.468105,148.752601 303.832024,148.472656 305.355469,148.472656 C306.865893,148.472656 308.177729,148.72656 309.291016,149.234375 C310.404302,149.74219 311.322262,150.448563 312.044922,151.353516 C312.767582,152.258468 313.304686,153.342442 313.65625,154.605469 C314.007814,155.868496 314.183594,157.261711 314.183594,158.785156 C314.183594,158.889323 314.180339,159.003255 314.173828,159.126953 C314.167318,159.250652 314.164062,159.345052 314.164062,159.410156 L298.1875,159.410156 L298.1875,159.78125 C298.1875,160.94011 298.360024,161.994787 298.705078,162.945312 C299.050132,163.895838 299.548174,164.709632 300.199219,165.386719 C300.850264,166.063805 301.638016,166.591144 302.5625,166.96875 C303.486984,167.346356 304.53515,167.535156 305.707031,167.535156 C307.165372,167.535156 308.473953,167.320315 309.632812,166.890625 C310.791672,166.460935 311.761715,165.848962 312.542969,165.054688 L312.542969,165.054688 Z M333.753906,140.132812 L333.753906,142.554688 L331.507812,142.554688 L331.507812,140.132812 L333.753906,140.132812 Z M331.371094,148.960938 L333.792969,148.960938 L333.792969,169 L331.371094,169 L331.371094,148.960938 Z M343.5,169 L341.078125,169 L341.078125,153.609375 L340.902344,148.960938 L343.441406,148.960938 L343.558594,152.886719 C345.134122,149.943996 347.608056,148.472656 350.980469,148.472656 C351.957036,148.472656 352.813147,148.589843 353.548828,148.824219 C354.284509,149.058595 354.916013,149.380857 355.443359,149.791016 C355.970706,150.201174 356.403644,150.679685 356.742188,151.226562 C357.080731,151.77344 357.341145,152.362627 357.523438,152.994141 C357.70573,153.625654 357.835937,154.2832 357.914062,154.966797 C357.992188,155.650394 358.03125,156.330726 358.03125,157.007812 C358.044271,157.359377 358.050781,158.013667 358.050781,158.970703 L358.050781,162.496094 L358.050781,169 L355.628906,169 L355.628906,158.414062 C355.628906,157.710934 355.625651,157.157554 355.619141,156.753906 C355.61263,156.350258 355.602865,156.089844 355.589844,155.972656 C355.524739,154.13671 355.033208,152.75326 354.115234,151.822266 C353.197261,150.891271 351.937508,150.425781 350.335938,150.425781 C349.606767,150.425781 348.932946,150.520181 348.314453,150.708984 C347.69596,150.897787 347.13607,151.148436 346.634766,151.460938 C346.133461,151.773439 345.694012,152.128253 345.316406,152.525391 C344.9388,152.922528 344.606772,153.33268 344.320312,153.755859 C344.033853,154.179039 343.825521,154.592446 343.695312,154.996094 C343.565104,155.399742 343.5,155.764321 343.5,156.089844 L343.5,169 Z M366.488281,150.5625 L362.445312,150.5625 L362.445312,148.960938 L366.488281,148.960938 L366.507812,143.335938 L368.910156,142.671875 L368.910156,148.960938 L374.066406,148.960938 L374.066406,150.5625 L368.910156,150.5625 L368.910156,163.082031 C368.910156,163.850264 368.929687,164.52083 368.96875,165.09375 C369.007813,165.66667 369.111978,166.13867 369.28125,166.509766 C369.450522,166.880861 369.746743,167.157551 370.169922,167.339844 C370.593101,167.522136 371.195309,167.613281 371.976562,167.613281 C372.914067,167.613281 373.630206,167.489585 374.125,167.242188 L374.125,168.902344 C373.83854,169.097657 373.503257,169.23763 373.119141,169.322266 C372.735024,169.406901 372.295575,169.449219 371.800781,169.449219 C370.720047,169.449219 369.831384,169.332032 369.134766,169.097656 C368.438148,168.86328 367.894533,168.508466 367.503906,168.033203 C367.113279,167.55794 366.846355,166.962243 366.703125,166.246094 C366.559895,165.529944 366.488281,164.690109 366.488281,163.726562 L366.488281,150.5625 Z M380.667969,157.417969 L394.085938,157.417969 L394.085938,157.378906 L394.085938,157.515625 C394.046875,156.460932 393.900392,155.500655 393.646484,154.634766 C393.392577,153.768876 393.011721,153.023441 392.503906,152.398438 C391.996091,151.773434 391.348311,151.288413 390.560547,150.943359 C389.772783,150.598306 388.825526,150.425781 387.71875,150.425781 C386.638015,150.425781 385.680994,150.611326 384.847656,150.982422 C384.014319,151.353517 383.30469,151.85807 382.71875,152.496094 C382.13281,153.134118 381.667319,153.876298 381.322266,154.722656 C380.977212,155.569015 380.759115,156.467443 380.667969,157.417969 L380.667969,157.417969 Z M394.984375,165.054688 L395.6875,166.929688 C394.710933,167.828129 393.574876,168.472654 392.279297,168.863281 C390.983717,169.253908 389.522144,169.449219 387.894531,169.449219 C386.345044,169.449219 384.961595,169.19206 383.744141,168.677734 C382.526687,168.163409 381.498051,167.44727 380.658203,166.529297 C379.818355,165.611324 379.177086,164.517584 378.734375,163.248047 C378.291664,161.978509 378.070312,160.588549 378.070312,159.078125 C378.070312,157.632805 378.291664,156.265631 378.734375,154.976562 C379.177086,153.687494 379.8151,152.561203 380.648438,151.597656 C381.481775,150.63411 382.500645,149.872399 383.705078,149.3125 C384.909511,148.752601 386.27343,148.472656 387.796875,148.472656 C389.307299,148.472656 390.619135,148.72656 391.732422,149.234375 C392.845709,149.74219 393.763668,150.448563 394.486328,151.353516 C395.208988,152.258468 395.746092,153.342442 396.097656,154.605469 C396.449221,155.868496 396.625,157.261711 396.625,158.785156 C396.625,158.889323 396.621745,159.003255 396.615234,159.126953 C396.608724,159.250652 396.605469,159.345052 396.605469,159.410156 L380.628906,159.410156 L380.628906,159.78125 C380.628906,160.94011 380.801431,161.994787 381.146484,162.945312 C381.491538,163.895838 381.98958,164.709632 382.640625,165.386719 C383.29167,166.063805 384.079422,166.591144 385.003906,166.96875 C385.92839,167.346356 386.976557,167.535156 388.148438,167.535156 C389.606778,167.535156 390.915359,167.320315 392.074219,166.890625 C393.233079,166.460935 394.203121,165.848962 394.984375,165.054688 L394.984375,165.054688 Z M404.457031,169 L402.035156,169 L402.035156,153.609375 L401.839844,148.960938 L404.378906,148.960938 L404.457031,153.804688 C404.665366,152.867183 404.968097,152.063154 405.365234,151.392578 C405.762372,150.722002 406.214841,150.171877 406.722656,149.742188 C407.230471,149.312498 407.803382,148.996746 408.441406,148.794922 C409.07943,148.593098 409.769528,148.485677 410.511719,148.472656 C410.889325,148.472656 411.218098,148.482422 411.498047,148.501953 C411.777996,148.521484 412.009114,148.557291 412.191406,148.609375 L412.210938,150.835938 C412.093749,150.783854 411.882163,150.735026 411.576172,150.689453 C411.270181,150.64388 410.869794,150.621094 410.375,150.621094 C409.515621,150.621094 408.727868,150.787108 408.011719,151.119141 C407.295569,151.451174 406.680341,151.929684 406.166016,152.554688 C405.65169,153.179691 405.241538,153.934891 404.935547,154.820312 C404.629556,155.705734 404.470052,156.695307 404.457031,157.789062 L404.457031,169 Z M418.8125,169 L416.390625,169 L416.390625,153.609375 L416.214844,148.960938 L418.753906,148.960938 L418.871094,152.886719 C420.446622,149.943996 422.920556,148.472656 426.292969,148.472656 C427.269536,148.472656 428.125647,148.589843 428.861328,148.824219 C429.597009,149.058595 430.228513,149.380857 430.755859,149.791016 C431.283206,150.201174 431.716144,150.679685 432.054688,151.226562 C432.393231,151.77344 432.653645,152.362627 432.835938,152.994141 C433.01823,153.625654 433.148437,154.2832 433.226562,154.966797 C433.304688,155.650394 433.34375,156.330726 433.34375,157.007812 C433.356771,157.359377 433.363281,158.013667 433.363281,158.970703 L433.363281,162.496094 L433.363281,169 L430.941406,169 L430.941406,158.414062 C430.941406,157.710934 430.938151,157.157554 430.931641,156.753906 C430.92513,156.350258 430.915365,156.089844 430.902344,155.972656 C430.837239,154.13671 430.345708,152.75326 429.427734,151.822266 C428.509761,150.891271 427.250008,150.425781 425.648438,150.425781 C424.919267,150.425781 424.245446,150.520181 423.626953,150.708984 C423.00846,150.897787 422.44857,151.148436 421.947266,151.460938 C421.445961,151.773439 421.006512,152.128253 420.628906,152.525391 C420.2513,152.922528 419.919272,153.33268 419.632812,153.755859 C419.346353,154.179039 419.138021,154.592446 419.007812,154.996094 C418.877604,155.399742 418.8125,155.764321 418.8125,156.089844 L418.8125,169 Z M441.742188,157.417969 L455.160156,157.417969 L455.160156,157.378906 L455.160156,157.515625 C455.121094,156.460932 454.974611,155.500655 454.720703,154.634766 C454.466796,153.768876 454.08594,153.023441 453.578125,152.398438 C453.07031,151.773434 452.42253,151.288413 451.634766,150.943359 C450.847001,150.598306 449.899745,150.425781 448.792969,150.425781 C447.712234,150.425781 446.755212,150.611326 445.921875,150.982422 C445.088538,151.353517 444.378909,151.85807 443.792969,152.496094 C443.207028,153.134118 442.741538,153.876298 442.396484,154.722656 C442.051431,155.569015 441.833334,156.467443 441.742188,157.417969 L441.742188,157.417969 Z M456.058594,165.054688 L456.761719,166.929688 C455.785151,167.828129 454.649095,168.472654 453.353516,168.863281 C452.057936,169.253908 450.596362,169.449219 448.96875,169.449219 C447.419263,169.449219 446.035813,169.19206 444.818359,168.677734 C443.600905,168.163409 442.57227,167.44727 441.732422,166.529297 C440.892574,165.611324 440.251304,164.517584 439.808594,163.248047 C439.365883,161.978509 439.144531,160.588549 439.144531,159.078125 C439.144531,157.632805 439.365883,156.265631 439.808594,154.976562 C440.251304,153.687494 440.889319,152.561203 441.722656,151.597656 C442.555994,150.63411 443.574864,149.872399 444.779297,149.3125 C445.98373,148.752601 447.347649,148.472656 448.871094,148.472656 C450.381518,148.472656 451.693354,148.72656 452.806641,149.234375 C453.919927,149.74219 454.837887,150.448563 455.560547,151.353516 C456.283207,152.258468 456.820311,153.342442 457.171875,154.605469 C457.523439,155.868496 457.699219,157.261711 457.699219,158.785156 C457.699219,158.889323 457.695964,159.003255 457.689453,159.126953 C457.682943,159.250652 457.679688,159.345052 457.679688,159.410156 L441.703125,159.410156 L441.703125,159.78125 C441.703125,160.94011 441.875649,161.994787 442.220703,162.945312 C442.565757,163.895838 443.063799,164.709632 443.714844,165.386719 C444.365889,166.063805 445.153641,166.591144 446.078125,166.96875 C447.002609,167.346356 448.050775,167.535156 449.222656,167.535156 C450.680997,167.535156 451.989578,167.320315 453.148438,166.890625 C454.307297,166.460935 455.27734,165.848962 456.058594,165.054688 L456.058594,165.054688 Z M464.710938,150.5625 L460.667969,150.5625 L460.667969,148.960938 L464.710938,148.960938 L464.730469,143.335938 L467.132812,142.671875 L467.132812,148.960938 L472.289062,148.960938 L472.289062,150.5625 L467.132812,150.5625 L467.132812,163.082031 C467.132812,163.850264 467.152344,164.52083 467.191406,165.09375 C467.230469,165.66667 467.334635,166.13867 467.503906,166.509766 C467.673178,166.880861 467.969399,167.157551 468.392578,167.339844 C468.815757,167.522136 469.417965,167.613281 470.199219,167.613281 C471.136723,167.613281 471.852862,167.489585 472.347656,167.242188 L472.347656,168.902344 C472.061196,169.097657 471.725913,169.23763 471.341797,169.322266 C470.95768,169.406901 470.518232,169.449219 470.023438,169.449219 C468.942703,169.449219 468.05404,169.332032 467.357422,169.097656 C466.660804,168.86328 466.117189,168.508466 465.726562,168.033203 C465.335936,167.55794 465.069011,166.962243 464.925781,166.246094 C464.782551,165.529944 464.710938,164.690109 464.710938,163.726562 L464.710938,150.5625 Z" id="for-the-internet" fill="#383838" sketch:type="MSShapeGroup"></path>
                <path d="M251.640625,78.4726562 C252.57813,78.4726562 253.42122,78.5735667 254.169922,78.7753906 C254.918624,78.9772146 255.60221,79.26367 256.220703,79.6347656 C256.839196,80.0058612 257.405596,80.4583307 257.919922,80.9921875 C258.434247,81.5260443 258.925779,82.131507 259.394531,82.8085938 L259.492188,78.9609375 L261.835938,78.9609375 L261.835938,83.7265625 L261.835938,99 L259.375,99 L259.414062,94.7226562 C259.23177,95.2565131 258.912763,95.8001274 258.457031,96.3535156 C258.0013,96.9069038 257.434899,97.4147112 256.757812,97.8769531 C256.080726,98.339195 255.302739,98.7167954 254.423828,99.0097656 C253.544917,99.3027358 252.597661,99.4492188 251.582031,99.4492188 C249.928377,99.4492188 248.505865,99.1269563 247.314453,98.4824219 C246.123041,97.8378874 245.143233,97.0045624 244.375,95.9824219 C243.606767,94.9602813 243.040366,93.8144595 242.675781,92.5449219 C242.311196,91.2753843 242.128906,90.0156312 242.128906,88.765625 C242.128906,87.4765561 242.324217,86.2135479 242.714844,84.9765625 C243.105471,83.7395771 243.697913,82.6393277 244.492188,81.6757812 C245.286462,80.7122348 246.276036,79.9375029 247.460938,79.3515625 C248.645839,78.7656221 250.039054,78.4726562 251.640625,78.4726562 L251.640625,78.4726562 Z M259.472656,88.7460938 C259.394531,87.691401 259.215496,86.6660206 258.935547,85.6699219 C258.655598,84.6738231 258.222659,83.7851602 257.636719,83.0039062 C257.050778,82.2226523 256.285812,81.5976586 255.341797,81.1289062 C254.397782,80.6601539 253.222663,80.4257812 251.816406,80.4257812 C250.501296,80.4257812 249.37826,80.679685 248.447266,81.1875 C247.516271,81.695315 246.751305,82.3561157 246.152344,83.1699219 C245.553382,83.983728 245.117189,84.8919221 244.84375,85.8945312 C244.570311,86.8971404 244.433594,87.8932242 244.433594,88.8828125 C244.433594,89.8724008 244.537759,90.8782501 244.746094,91.9003906 C244.954428,92.9225312 245.335284,93.8502563 245.888672,94.6835938 C246.44206,95.5169312 247.210282,96.2005182 248.193359,96.734375 C249.176437,97.2682318 250.442701,97.5351562 251.992188,97.5351562 C253.033859,97.5351562 254.010412,97.3658871 254.921875,97.0273438 C255.833338,96.6888004 256.624346,96.1744826 257.294922,95.484375 C257.965498,94.7942674 258.496092,93.9283906 258.886719,92.8867188 C259.277346,91.8450469 259.472656,90.6276111 259.472656,89.234375 L259.472656,88.7460938 Z M270.371094,99 L267.949219,99 L267.949219,83.609375 L267.773438,78.9609375 L270.3125,78.9609375 L270.429688,82.8867188 C272.005216,79.9439957 274.47915,78.4726562 277.851562,78.4726562 C278.82813,78.4726562 279.684241,78.5898426 280.419922,78.8242188 C281.155603,79.0585949 281.787107,79.3808573 282.314453,79.7910156 C282.8418,80.2011739 283.274738,80.6796848 283.613281,81.2265625 C283.951825,81.7734402 284.212239,82.3626271 284.394531,82.9941406 C284.576824,83.6256542 284.707031,84.2831997 284.785156,84.9667969 C284.863282,85.650394 284.902344,86.3307258 284.902344,87.0078125 C284.915365,87.3593768 284.921875,88.0136671 284.921875,88.9707031 L284.921875,92.4960938 L284.921875,99 L282.5,99 L282.5,88.4140625 C282.5,87.710934 282.496745,87.1575541 282.490234,86.7539062 C282.483724,86.3502584 282.473958,86.0898443 282.460938,85.9726562 C282.395833,84.1367096 281.904301,82.7532599 280.986328,81.8222656 C280.068355,80.8912714 278.808602,80.4257812 277.207031,80.4257812 C276.477861,80.4257812 275.80404,80.5201813 275.185547,80.7089844 C274.567054,80.8977874 274.007164,81.1484359 273.505859,81.4609375 C273.004555,81.7734391 272.565106,82.1282532 272.1875,82.5253906 C271.809894,82.922528 271.477866,83.3326802 271.191406,83.7558594 C270.904946,84.1790386 270.696615,84.5924459 270.566406,84.9960938 C270.436197,85.3997416 270.371094,85.7643213 270.371094,86.0898438 L270.371094,99 Z M306.757812,69.546875 L309.179688,69.546875 L309.179688,94.1757812 C309.179688,95.0351605 309.182943,95.839189 309.189453,96.5878906 C309.195964,97.3365923 309.21875,98.1406207 309.257812,99 L306.855469,99 L306.738281,94.9765625 C305.85286,96.5390703 304.772142,97.6751267 303.496094,98.3847656 C302.220046,99.0944046 300.755217,99.4492188 299.101562,99.4492188 C297.578117,99.4492188 296.259771,99.1790392 295.146484,98.6386719 C294.033198,98.0983046 293.115238,97.36589 292.392578,96.4414062 C291.669918,95.5169225 291.132814,94.4296937 290.78125,93.1796875 C290.429686,91.9296813 290.253906,90.5885488 290.253906,89.15625 C290.253906,87.7369721 290.442706,86.3828189 290.820312,85.09375 C291.197919,83.8046811 291.767574,82.6686247 292.529297,81.6855469 C293.291019,80.702469 294.238276,79.9212269 295.371094,79.3417969 C296.503912,78.7623669 297.825513,78.4726562 299.335938,78.4726562 C301.067717,78.4726562 302.568353,78.8372359 303.837891,79.5664062 C305.107428,80.2955766 306.080726,81.4283777 306.757812,82.9648438 L306.757812,69.546875 Z M299.667969,97.5351562 C300.865891,97.5351562 301.910803,97.3105491 302.802734,96.8613281 C303.694666,96.4121071 304.433591,95.7903686 305.019531,94.9960938 C305.605472,94.2018189 306.041665,93.257818 306.328125,92.1640625 C306.614585,91.070307 306.757812,89.8789127 306.757812,88.5898438 C306.757812,87.3398375 306.595054,86.2135467 306.269531,85.2109375 C305.944009,84.2083283 305.481774,83.3522171 304.882812,82.6425781 C304.283851,81.9329392 303.557947,81.3860696 302.705078,81.0019531 C301.852209,80.6178366 300.891932,80.4257812 299.824219,80.4257812 C298.587233,80.4257812 297.526046,80.6601539 296.640625,81.1289062 C295.755204,81.5976586 295.026045,82.2291627 294.453125,83.0234375 C293.880205,83.8177123 293.457033,84.7389271 293.183594,85.7871094 C292.910155,86.8352917 292.773438,87.9387963 292.773438,89.0976562 C292.773438,90.2044326 292.893879,91.2656199 293.134766,92.28125 C293.375652,93.2968801 293.769529,94.1953086 294.316406,94.9765625 C294.863284,95.7578164 295.572912,96.379555 296.445312,96.8417969 C297.317713,97.3040388 298.391921,97.5351562 299.667969,97.5351562 L299.667969,97.5351562 Z" id="and" fill="#383838" sketch:type="MSShapeGroup"></path>
            </g>
        </g>
    </g>
</svg>