<?xml version="1.0" encoding="UTF-8" standalone="no"?>
<svg width="672px" height="170px" viewBox="0 0 672 170" version="1.1" xmlns="http://www.w3.org/2000/svg" xmlns:xlink="http://www.w3.org/1999/xlink" xmlns:sketch="http://www.bohemiancoding.com/sketch/ns">
    <!-- Generator: Sketch 3.3 (11970) - http://www.bohemiancoding.com/sketch -->
    <title>passion</title>
    <desc>Created with Sketch.</desc>
    <defs>
        <path d="M22.1,0.2 L23.2,0.2 L23.2,38 L22.1,38 L22.1,31.8 L21.95,31.8 C20.949995,34.066678 19.5250093,35.7833275 17.675,36.95 C15.8249908,38.1166725 13.800011,38.7 11.6,38.7 C9.933325,38.7 8.39167375,38.3916698 6.975,37.775 C5.55832625,37.1583303 4.34167175,36.3083388 3.325,35.225 C2.30832825,34.1416613 1.5166695,32.8583408 0.95,31.375 C0.3833305,29.8916593 0.1,28.283342 0.1,26.55 C0.1,24.816658 0.3833305,23.2000075 0.95,21.7 C1.5166695,20.1999925 2.30832825,18.9000055 3.325,17.8 C4.34167175,16.6999945 5.55832625,15.8416698 6.975,15.225 C8.39167375,14.6083303 9.933325,14.3 11.6,14.3 C13.800011,14.3 15.8249908,14.8833275 17.675,16.05 C19.5250093,17.2166725 20.949995,18.9499885 21.95,21.25 L22.1,21.25 L22.1,0.2 Z M1.2,26.55 C1.2,28.0500075 1.44166425,29.4833265 1.925,30.85 C2.40833575,32.2166735 3.0999955,33.4083282 4,34.425 C4.9000045,35.4416717 5.99166025,36.249997 7.275,36.85 C8.55833975,37.450003 9.999992,37.75 11.6,37.75 C13.133341,37.75 14.5416603,37.450003 15.825,36.85 C17.1083398,36.249997 18.216662,35.4416717 19.15,34.425 C20.083338,33.4083282 20.816664,32.2166735 21.35,30.85 C21.883336,29.4833265 22.15,28.033341 22.15,26.5 C22.15,24.966659 21.883336,23.5166735 21.35,22.15 C20.816664,20.7833265 20.083338,19.5916717 19.15,18.575 C18.216662,17.5583283 17.1083398,16.750003 15.825,16.15 C14.5416603,15.549997 13.133341,15.25 11.6,15.25 C9.999992,15.25 8.55833975,15.5583302 7.275,16.175 C5.99166025,16.7916697 4.9000045,17.6166615 4,18.65 C3.0999955,19.6833385 2.40833575,20.8833265 1.925,22.25 C1.44166425,23.6166735 1.2,25.0499925 1.2,26.55 L1.2,26.55 Z M32.5,26.25 C32.5,27.650007 32.7083312,29.0333265 33.125,30.4 C33.5416687,31.7666735 34.1749957,32.9916613 35.025,34.075 C35.8750042,35.1583388 36.9499935,36.03333 38.25,36.7 C39.5500065,37.36667 41.0833245,37.7 42.85,37.7 C44.650009,37.7 46.249993,37.3416703 47.65,36.625 C49.050007,35.9083298 50.2666615,34.8666735 51.3,33.5 L52.1,34.2 C50.966661,35.666674 49.6416742,36.7833295 48.125,37.55 C46.6083257,38.3166705 44.85001,38.7 42.85,38.7 C41.1499915,38.7 39.600007,38.3916698 38.2,37.775 C36.799993,37.1583303 35.5916717,36.3000055 34.575,35.2 C33.5583282,34.0999945 32.7750027,32.783341 32.225,31.25 C31.6749972,29.716659 31.4,28.050009 31.4,26.25 C31.4,24.516658 31.6833305,22.916674 32.25,21.45 C32.8166695,19.983326 33.5916617,18.716672 34.575,17.65 C35.5583382,16.583328 36.71666,15.7583363 38.05,15.175 C39.38334,14.5916638 40.816659,14.3 42.35,14.3 C44.150009,14.3 45.71666,14.6166635 47.05,15.25 C48.38334,15.8833365 49.4916622,16.7166615 50.375,17.75 C51.2583377,18.7833385 51.9166645,19.9583268 52.35,21.275 C52.7833355,22.5916733 53,23.9333265 53,25.3 L53,26.25 L32.5,26.25 Z M51.95,25.3 C51.9166665,23.7999925 51.6583358,22.4333395 51.175,21.2 C50.6916643,19.9666605 50.0333375,18.9083377 49.2,18.025 C48.3666625,17.1416622 47.3666725,16.4583358 46.2,15.975 C45.0333275,15.4916642 43.7333405,15.25 42.3,15.25 C40.566658,15.25 39.0833395,15.6083297 37.85,16.325 C36.6166605,17.0416703 35.6083373,17.9249947 34.825,18.975 C34.0416628,20.0250052 33.4666685,21.1249943 33.1,22.275 C32.7333315,23.4250057 32.55,24.433329 32.55,25.3 L51.95,25.3 Z M74.15,32 C74.15,33.0333385 73.950002,33.9583293 73.55,34.775 C73.149998,35.5916708 72.6083368,36.2833305 71.925,36.85 C71.2416633,37.4166695 70.4500045,37.8499985 69.55,38.15 C68.6499955,38.4500015 67.6833385,38.6 66.65,38.6 C64.9499915,38.6 63.4083403,38.2750033 62.025,37.625 C60.6416598,36.9749968 59.5000045,36.016673 58.6,34.75 L59.5,34.15 C61.166675,36.483345 63.566651,37.65 66.7,37.65 C67.433337,37.65 68.1749963,37.5333345 68.925,37.3 C69.6750038,37.0666655 70.3583303,36.716669 70.975,36.25 C71.5916698,35.783331 72.0916648,35.2000035 72.475,34.5 C72.8583353,33.7999965 73.05,33.0000045 73.05,32.1 C73.05,31.033328 72.8083358,30.16667 72.325,29.5 C71.8416643,28.83333 71.233337,28.300002 70.5,27.9 C69.766663,27.499998 68.9583378,27.1750013 68.075,26.925 C67.1916623,26.6749988 66.3666705,26.450001 65.6,26.25 C64.7666625,26.0166655 63.983337,25.7583348 63.25,25.475 C62.516663,25.1916653 61.8750028,24.8250023 61.325,24.375 C60.7749973,23.9249978 60.3416683,23.36667 60.025,22.7 C59.7083318,22.03333 59.55,21.200005 59.55,20.2 C59.55,19.199995 59.749998,18.333337 60.15,17.6 C60.550002,16.866663 61.08333,16.2583358 61.75,15.775 C62.41667,15.2916643 63.1749958,14.9250013 64.025,14.675 C64.8750043,14.4249988 65.733329,14.3 66.6,14.3 C69.733349,14.3 72.0833255,15.4166555 73.65,17.65 L72.7,18.2 C71.9333295,17.199995 71.0666715,16.4583358 70.1,15.975 C69.1333285,15.4916643 67.9666735,15.25 66.6,15.25 C65.9666635,15.25 65.3000035,15.3333325 64.6,15.5 C63.8999965,15.6666675 63.2583363,15.9416648 62.675,16.325 C62.0916638,16.7083353 61.6083353,17.2166635 61.225,17.85 C60.8416648,18.4833365 60.65,19.2499955 60.65,20.15 C60.65,21.150005 60.8083318,21.949997 61.125,22.55 C61.4416683,23.150003 61.8833305,23.6333315 62.45,24 C63.0166695,24.3666685 63.699996,24.6749988 64.5,24.925 C65.300004,25.1750013 66.1833285,25.4166655 67.15,25.65 C68.0500045,25.8833345 68.9249958,26.1583318 69.775,26.475 C70.6250043,26.7916683 71.3749968,27.183331 72.025,27.65 C72.6750033,28.116669 73.1916648,28.6999965 73.575,29.4 C73.9583353,30.1000035 74.15,30.9666615 74.15,32 L74.15,32 Z M82.5,6.35 C82.1999985,6.35 81.9333345,6.2333345 81.7,6 C81.4666655,5.7666655 81.35,5.450002 81.35,5.05 C81.35,4.6833315 81.4666655,4.3833345 81.7,4.15 C81.9333345,3.9166655 82.1999985,3.8 82.5,3.8 C82.8000015,3.8 83.0666655,3.9166655 83.3,4.15 C83.5333345,4.3833345 83.65,4.6833315 83.65,5.05 C83.65,5.450002 83.5250013,5.7666655 83.275,6 C83.0249988,6.2333345 82.766668,6.35 82.5,6.35 L82.5,6.35 Z M81.95,38 L81.95,15 L83.05,15 L83.05,38 L81.95,38 Z M113.25,31.8 L113.1,31.8 C112.666665,32.933339 112.083337,33.9249958 111.35,34.775 C110.616663,35.6250043 109.800005,36.3416638 108.9,36.925 C107.999996,37.5083363 107.025005,37.9499985 105.975,38.25 C104.924995,38.5500015 103.850005,38.7 102.75,38.7 C101.083325,38.7 99.5416738,38.3916698 98.125,37.775 C96.7083263,37.1583303 95.4916718,36.3083388 94.475,35.225 C93.4583283,34.1416613 92.6666695,32.8583408 92.1,31.375 C91.5333305,29.8916593 91.25,28.283342 91.25,26.55 C91.25,24.816658 91.5333305,23.2000075 92.1,21.7 C92.6666695,20.1999925 93.4583283,18.9000055 94.475,17.8 C95.4916718,16.6999945 96.7083263,15.8416698 98.125,15.225 C99.5416738,14.6083303 101.083325,14.3 102.75,14.3 C104.950011,14.3 106.974991,14.8833275 108.825,16.05 C110.675009,17.2166725 112.099995,18.9499885 113.1,21.25 L113.25,21.25 L113.25,15 L114.35,15 L114.35,36.7 C114.35,38.5333425 114.158335,40.283325 113.775,41.95 C113.391665,43.616675 112.758338,45.083327 111.875,46.35 C110.991662,47.616673 109.825007,48.6249963 108.375,49.375 C106.924993,50.1250038 105.133344,50.5 103,50.5 C100.833323,50.5 98.9000085,50.1250038 97.2,49.375 C95.4999915,48.6249963 94.050006,47.5666735 92.85,46.2 L93.6,45.45 C94.866673,46.8833405 96.3083253,47.9249968 97.925,48.575 C99.5416748,49.2250033 101.233324,49.55 103,49.55 C105.00001,49.55 106.66666,49.183337 108,48.45 C109.33334,47.716663 110.38333,46.750006 111.15,45.55 C111.91667,44.349994 112.458332,42.9750078 112.775,41.425 C113.091668,39.8749923 113.25,38.266675 113.25,36.6 L113.25,31.8 Z M92.35,26.55 C92.35,28.0500075 92.5916643,29.4833265 93.075,30.85 C93.5583358,32.2166735 94.2499955,33.4166615 95.15,34.45 C96.0500045,35.4833385 97.1416603,36.299997 98.425,36.9 C99.7083398,37.500003 101.149992,37.8 102.75,37.8 C104.283341,37.8 105.69166,37.500003 106.975,36.9 C108.25834,36.299997 109.366662,35.4833385 110.3,34.45 C111.233338,33.4166615 111.966664,32.2166735 112.5,30.85 C113.033336,29.4833265 113.3,28.033341 113.3,26.5 C113.3,24.966659 113.033336,23.5166735 112.5,22.15 C111.966664,20.7833265 111.233338,19.5916717 110.3,18.575 C109.366662,17.5583283 108.25834,16.750003 106.975,16.15 C105.69166,15.549997 104.283341,15.25 102.75,15.25 C101.149992,15.25 99.7083398,15.5583302 98.425,16.175 C97.1416603,16.7916697 96.0500045,17.6166615 95.15,18.65 C94.2499955,19.6833385 93.5583358,20.8833265 93.075,22.25 C92.5916643,23.6166735 92.35,25.0499925 92.35,26.55 L92.35,26.55 Z M125.85,21.05 C126.183335,19.983328 126.666664,19.0333375 127.3,18.2 C127.933337,17.3666625 128.649996,16.6583363 129.45,16.075 C130.250004,15.4916638 131.116662,15.0500015 132.05,14.75 C132.983338,14.4499985 133.949995,14.3 134.95,14.3 C136.550008,14.3 137.883328,14.5833305 138.95,15.15 C140.016672,15.7166695 140.866664,16.466662 141.5,17.4 C142.133337,18.333338 142.583332,19.3833275 142.85,20.55 C143.116668,21.7166725 143.25,22.899994 143.25,24.1 L143.25,38 L142.15,38 L142.15,24.2 C142.15,23.266662 142.050001,22.266672 141.85,21.2 C141.649999,20.133328 141.275003,19.166671 140.725,18.3 C140.174997,17.433329 139.433338,16.7083363 138.5,16.125 C137.566662,15.5416638 136.383341,15.25 134.95,15.25 C133.683327,15.25 132.491672,15.5083308 131.375,16.025 C130.258328,16.5416693 129.291671,17.2833285 128.475,18.25 C127.658329,19.2166715 127.008336,20.3916598 126.525,21.775 C126.041664,23.1583403 125.8,24.7333245 125.8,26.5 L125.8,38 L124.7,38 L124.7,20.8 C124.7,20.4333315 124.691667,19.983336 124.675,19.45 C124.658333,18.916664 124.641667,18.3750028 124.625,17.825 C124.608333,17.2749973 124.583334,16.7500025 124.55,16.25 C124.516667,15.7499975 124.483334,15.333335 124.45,15 L125.55,15 C125.583334,15.333335 125.608333,15.7499975 125.625,16.25 C125.641667,16.7500025 125.658333,17.2916638 125.675,17.875 C125.691667,18.4583363 125.708333,19.0249973 125.725,19.575 C125.741667,20.1250028 125.75,20.6166645 125.75,21.05 L125.85,21.05 Z M153.7,6.35 C153.399999,6.35 153.133335,6.2333345 152.9,6 C152.666666,5.7666655 152.55,5.450002 152.55,5.05 C152.55,4.6833315 152.666666,4.3833345 152.9,4.15 C153.133335,3.9166655 153.399999,3.8 153.7,3.8 C154.000002,3.8 154.266666,3.9166655 154.5,4.15 C154.733335,4.3833345 154.85,4.6833315 154.85,5.05 C154.85,5.450002 154.725001,5.7666655 154.475,6 C154.224999,6.2333345 153.966668,6.35 153.7,6.35 L153.7,6.35 Z M153.15,38 L153.15,15 L154.25,15 L154.25,38 L153.15,38 Z M165.75,21.05 C166.083335,19.983328 166.566664,19.0333375 167.2,18.2 C167.833337,17.3666625 168.549996,16.6583363 169.35,16.075 C170.150004,15.4916638 171.016662,15.0500015 171.95,14.75 C172.883338,14.4499985 173.849995,14.3 174.85,14.3 C176.450008,14.3 177.783328,14.5833305 178.85,15.15 C179.916672,15.7166695 180.766664,16.466662 181.4,17.4 C182.033337,18.333338 182.483332,19.3833275 182.75,20.55 C183.016668,21.7166725 183.15,22.899994 183.15,24.1 L183.15,38 L182.05,38 L182.05,24.2 C182.05,23.266662 181.950001,22.266672 181.75,21.2 C181.549999,20.133328 181.175003,19.166671 180.625,18.3 C180.074997,17.433329 179.333338,16.7083363 178.4,16.125 C177.466662,15.5416638 176.283341,15.25 174.85,15.25 C173.583327,15.25 172.391672,15.5083308 171.275,16.025 C170.158328,16.5416693 169.191671,17.2833285 168.375,18.25 C167.558329,19.2166715 166.908336,20.3916598 166.425,21.775 C165.941664,23.1583403 165.7,24.7333245 165.7,26.5 L165.7,38 L164.6,38 L164.6,20.8 C164.6,20.4333315 164.591667,19.983336 164.575,19.45 C164.558333,18.916664 164.541667,18.3750028 164.525,17.825 C164.508333,17.2749973 164.483334,16.7500025 164.45,16.25 C164.416667,15.7499975 164.383334,15.333335 164.35,15 L165.45,15 C165.483334,15.333335 165.508333,15.7499975 165.525,16.25 C165.541667,16.7500025 165.558333,17.2916638 165.575,17.875 C165.591667,18.4583363 165.608333,19.0249973 165.625,19.575 C165.641667,20.1250028 165.65,20.6166645 165.65,21.05 L165.75,21.05 Z M213.05,31.8 L212.9,31.8 C212.466665,32.933339 211.883337,33.9249958 211.15,34.775 C210.416663,35.6250043 209.600005,36.3416638 208.7,36.925 C207.799996,37.5083363 206.825005,37.9499985 205.775,38.25 C204.724995,38.5500015 203.650006,38.7 202.55,38.7 C200.883325,38.7 199.341674,38.3916698 197.925,37.775 C196.508326,37.1583303 195.291672,36.3083388 194.275,35.225 C193.258328,34.1416613 192.46667,32.8583408 191.9,31.375 C191.333331,29.8916593 191.05,28.283342 191.05,26.55 C191.05,24.816658 191.333331,23.2000075 191.9,21.7 C192.46667,20.1999925 193.258328,18.9000055 194.275,17.8 C195.291672,16.6999945 196.508326,15.8416698 197.925,15.225 C199.341674,14.6083303 200.883325,14.3 202.55,14.3 C204.750011,14.3 206.774991,14.8833275 208.625,16.05 C210.475009,17.2166725 211.899995,18.9499885 212.9,21.25 L213.05,21.25 L213.05,15 L214.15,15 L214.15,36.7 C214.15,38.5333425 213.958335,40.283325 213.575,41.95 C213.191665,43.616675 212.558338,45.083327 211.675,46.35 C210.791662,47.616673 209.625007,48.6249963 208.175,49.375 C206.724993,50.1250038 204.933344,50.5 202.8,50.5 C200.633323,50.5 198.700009,50.1250038 197,49.375 C195.299992,48.6249963 193.850006,47.5666735 192.65,46.2 L193.4,45.45 C194.666673,46.8833405 196.108325,47.9249968 197.725,48.575 C199.341675,49.2250033 201.033325,49.55 202.8,49.55 C204.80001,49.55 206.46666,49.183337 207.8,48.45 C209.13334,47.716663 210.18333,46.750006 210.95,45.55 C211.716671,44.349994 212.258332,42.9750078 212.575,41.425 C212.891668,39.8749923 213.05,38.266675 213.05,36.6 L213.05,31.8 Z M192.15,26.55 C192.15,28.0500075 192.391664,29.4833265 192.875,30.85 C193.358336,32.2166735 194.049995,33.4166615 194.95,34.45 C195.850004,35.4833385 196.94166,36.299997 198.225,36.9 C199.50834,37.500003 200.949992,37.8 202.55,37.8 C204.083341,37.8 205.49166,37.500003 206.775,36.9 C208.05834,36.299997 209.166662,35.4833385 210.1,34.45 C211.033338,33.4166615 211.766664,32.2166735 212.3,30.85 C212.833336,29.4833265 213.1,28.033341 213.1,26.5 C213.1,24.966659 212.833336,23.5166735 212.3,22.15 C211.766664,20.7833265 211.033338,19.5916717 210.1,18.575 C209.166662,17.5583283 208.05834,16.750003 206.775,16.15 C205.49166,15.549997 204.083341,15.25 202.55,15.25 C200.949992,15.25 199.50834,15.5583302 198.225,16.175 C196.94166,16.7916697 195.850004,17.6166615 194.95,18.65 C194.049995,19.6833385 193.358336,20.8833265 192.875,22.25 C192.391664,23.6166735 192.15,25.0499925 192.15,26.55 L192.15,26.55 Z" id="path-1"></path>
    </defs>
    <g id="Page-1" stroke="none" stroke-width="1" fill="none" fill-rule="evenodd" sketch:type="MSPage">
        <g id="Artboard-13" sketch:type="MSArtboardGroup" transform="translate(-431.000000, -605.000000)">
            <g id="passion" sketch:type="MSLayerGroup" transform="translate(431.000000, 595.000000)">
                <text id="My-passion-is" sketch:type="MSTextLayer" font-family="Muli" font-size="40" font-weight="260" fill="#383838">
                    <tspan x="97" y="39">My passion is</tspan>
                </text>
                <text id="and" sketch:type="MSTextLayer" font-family="Muli" font-size="40" font-weight="260" fill="#383838">
                    <tspan x="240" y="109">and</tspan>
                </text>
                <text id="for-the-internet" sketch:type="MSTextLayer" font-family="Muli" font-size="40" font-weight="260" fill="#383838">
                    <tspan x="191" y="179">for the internet</tspan>
                </text>
                <g id="&lt;developing&gt;" transform="translate(335.000000, 76.000000)" sketch:type="MSShapeGroup">
                    <path d="M51.2993249,1.36035156 L51.2993249,29.9492188 L54.0336999,29.9492188 C54.5382597,29.9492188 54.896329,30.0428051 55.1079186,30.2299805 C55.3195082,30.4171559 55.4253014,30.665363 55.4253014,30.9746094 C55.4253014,31.2675796 55.3195082,31.5117178 55.1079186,31.7070312 C54.896329,31.9023447 54.5382597,32 54.0336999,32 L49.2241296,32 L49.2241296,27.9228516 C46.8478156,31.1780762 43.8286401,32.8056641 40.1665124,32.8056641 C38.3110343,32.8056641 36.5328946,32.3133187 34.8320397,31.3286133 C33.1311849,30.3439078 31.7884248,28.9401133 30.8037194,27.1171875 C29.819014,25.2942617 29.3266686,23.4143977 29.3266686,21.4775391 C29.3266686,19.5244043 29.819014,17.6404713 30.8037194,15.8256836 C31.7884248,14.0108959 33.1311849,12.6071013 34.8320397,11.6142578 C36.5328946,10.6214143 38.3191723,10.125 40.1909264,10.125 C43.7716735,10.125 46.7827111,11.7525879 49.2241296,15.0078125 L49.2241296,3.43554688 L46.4897546,3.43554688 C45.9851947,3.43554688 45.6271254,3.3378916 45.4155358,3.14257812 C45.2039462,2.94726465 45.098153,2.69498853 45.098153,2.38574219 C45.098153,2.09277197 45.2039462,1.84863379 45.4155358,1.65332031 C45.6271254,1.45800684 45.9851947,1.36035156 46.4897546,1.36035156 L51.2993249,1.36035156 Z M49.2241296,21.4775391 C49.2241296,18.8733594 48.3452321,16.6761157 46.5874108,14.8857422 C44.8295895,13.0953687 42.7381391,12.2001953 40.3129967,12.2001953 C37.8715783,12.2001953 35.7719899,13.0953687 34.0141686,14.8857422 C32.2563473,16.6761157 31.3774499,18.8733594 31.3774499,21.4775391 C31.3774499,24.0654426 32.2563473,26.2586173 34.0141686,28.0571289 C35.7719899,29.8556405 37.8715783,30.7548828 40.3129967,30.7548828 C42.7381391,30.7548828 44.8295895,29.8556405 46.5874108,28.0571289 C48.3452321,26.2586173 49.2241296,24.0654426 49.2241296,21.4775391 L49.2241296,21.4775391 Z M80.5996263,21.9169922 L59.7011888,21.9169922 C60.0592635,24.5700002 61.1700922,26.7062094 63.0337083,28.3256836 C64.8973244,29.9451578 67.2044303,30.7548828 69.9550951,30.7548828 C71.4850506,30.7548828 73.0882247,30.5026067 74.7646654,29.9980469 C76.441106,29.4934871 77.8082799,28.826176 78.8662279,27.9960938 C79.1754742,27.7519519 79.4440262,27.6298828 79.6718919,27.6298828 C79.9323099,27.6298828 80.1601722,27.7316071 80.3554857,27.9350586 C80.5507992,28.1385101 80.6484544,28.3785793 80.6484544,28.6552734 C80.6484544,28.9319675 80.5182474,29.2005195 80.2578294,29.4609375 C79.4765755,30.2747437 78.0890568,31.035641 76.0952318,31.7436523 C74.1014067,32.4516637 72.0547149,32.8056641 69.9550951,32.8056641 C66.4394525,32.8056641 63.5057253,31.6541456 61.1538255,29.3510742 C58.8019257,27.0480028 57.6259935,24.2607585 57.6259935,20.9892578 C57.6259935,18.0107273 58.7286843,15.4554143 60.934099,13.3232422 C63.1395136,11.1910701 65.8697923,10.125 69.1250169,10.125 C72.4778983,10.125 75.2366597,11.2195529 77.4013841,13.4086914 C79.5661085,15.59783 80.6321785,18.4339019 80.5996263,21.9169922 L80.5996263,21.9169922 Z M78.524431,19.8417969 C78.1175279,17.5794158 77.0473889,15.7402415 75.3139818,14.3242188 C73.5805747,12.908196 71.517607,12.2001953 69.1250169,12.2001953 C66.7324268,12.2001953 64.6735282,12.9000581 62.9482591,14.2998047 C61.2229901,15.6995513 60.1487821,17.5468635 59.7256029,19.8417969 L78.524431,19.8417969 Z M99.5483652,32 L96.0815684,32 L87.6587168,12.9326172 L85.5591074,12.9326172 C85.0708237,12.9326172 84.7208923,12.8349619 84.5093027,12.6396484 C84.2977131,12.444335 84.1919199,12.1920588 84.1919199,11.8828125 C84.1919199,11.5898423 84.2977131,11.3457041 84.5093027,11.1503906 C84.7208923,10.9550771 85.0708237,10.8574219 85.5591074,10.8574219 L93.2495371,10.8574219 C93.7378208,10.8574219 94.0877522,10.9550771 94.2993418,11.1503906 C94.5109314,11.3457041 94.6167246,11.5979802 94.6167246,11.9072266 C94.6167246,12.2001968 94.5109314,12.444335 94.2993418,12.6396484 C94.0877522,12.8349619 93.7378208,12.9326172 93.2495371,12.9326172 L89.8559824,12.9326172 L97.3755137,29.9492188 L98.278834,29.9492188 L105.651881,12.9326172 L102.233912,12.9326172 C101.745628,12.9326172 101.395697,12.8349619 101.184107,12.6396484 C100.972518,12.444335 100.866725,12.1920588 100.866725,11.8828125 C100.866725,11.5898423 100.972518,11.3457041 101.184107,11.1503906 C101.395697,10.9550771 101.745628,10.8574219 102.233912,10.8574219 L109.948756,10.8574219 C110.453316,10.8574219 110.807316,10.9550771 111.010768,11.1503906 C111.214219,11.3457041 111.315943,11.5979802 111.315943,11.9072266 C111.315943,12.2001968 111.214219,12.444335 111.010768,12.6396484 C110.807316,12.8349619 110.453316,12.9326172 109.948756,12.9326172 L107.873561,12.9326172 L99.5483652,32 Z M137.10062,21.9169922 L116.202182,21.9169922 C116.560257,24.5700002 117.671086,26.7062094 119.534702,28.3256836 C121.398318,29.9451578 123.705424,30.7548828 126.456089,30.7548828 C127.986044,30.7548828 129.589218,30.5026067 131.265659,29.9980469 C132.9421,29.4934871 134.309273,28.826176 135.367221,27.9960938 C135.676468,27.7519519 135.94502,27.6298828 136.172885,27.6298828 C136.433303,27.6298828 136.661166,27.7316071 136.856479,27.9350586 C137.051793,28.1385101 137.149448,28.3785793 137.149448,28.6552734 C137.149448,28.9319675 137.019241,29.2005195 136.758823,29.4609375 C135.977569,30.2747437 134.59005,31.035641 132.596225,31.7436523 C130.6024,32.4516637 128.555708,32.8056641 126.456089,32.8056641 C122.940446,32.8056641 120.006719,31.6541456 117.654819,29.3510742 C115.302919,27.0480028 114.126987,24.2607585 114.126987,20.9892578 C114.126987,18.0107273 115.229678,15.4554143 117.435092,13.3232422 C119.640507,11.1910701 122.370786,10.125 125.62601,10.125 C128.978892,10.125 131.737653,11.2195529 133.902378,13.4086914 C136.067102,15.59783 137.133172,18.4339019 137.10062,21.9169922 L137.10062,21.9169922 Z M135.025424,19.8417969 C134.618521,17.5794158 133.548382,15.7402415 131.814975,14.3242188 C130.081568,12.908196 128.018601,12.2001953 125.62601,12.2001953 C123.23342,12.2001953 121.174522,12.9000581 119.449253,14.2998047 C117.723984,15.6995513 116.649776,17.5468635 116.226596,19.8417969 L135.025424,19.8417969 Z M155.292523,1.36035156 L155.292523,29.9492188 L163.349163,29.9492188 C163.853723,29.9492188 164.211793,30.0428051 164.423382,30.2299805 C164.634972,30.4171559 164.740765,30.665363 164.740765,30.9746094 C164.740765,31.2675796 164.634972,31.5117178 164.423382,31.7070312 C164.211793,31.9023447 163.853723,32 163.349163,32 L145.185101,32 C144.696817,32 144.346886,31.9023447 144.135296,31.7070312 C143.923707,31.5117178 143.817913,31.2675796 143.817913,30.9746094 C143.817913,30.665363 143.923707,30.4171559 144.135296,30.2299805 C144.346886,30.0428051 144.696817,29.9492188 145.185101,29.9492188 L153.241742,29.9492188 L153.241742,3.43554688 L147.333538,3.43554688 C146.845255,3.43554688 146.491254,3.3378916 146.271527,3.14257812 C146.051799,2.94726465 145.941937,2.69498853 145.941937,2.38574219 C145.941937,2.09277197 146.04773,1.84863379 146.25932,1.65332031 C146.470909,1.45800684 146.828979,1.36035156 147.333538,1.36035156 L155.292523,1.36035156 Z M193.967824,21.4775391 C193.967824,24.6025547 192.848858,27.2717988 190.610891,29.4853516 C188.372924,31.6989043 185.675197,32.8056641 182.517629,32.8056641 C179.327509,32.8056641 176.617575,31.6948353 174.387746,29.4731445 C172.157917,27.2514537 171.04302,24.5862786 171.04302,21.4775391 C171.04302,18.3525234 172.157917,15.6792103 174.387746,13.4575195 C176.617575,11.2358287 179.327509,10.125 182.517629,10.125 C185.675197,10.125 188.372924,11.2317598 190.610891,13.4453125 C192.848858,15.6588652 193.967824,18.3362473 193.967824,21.4775391 L193.967824,21.4775391 Z M191.892629,21.4775391 C191.892629,18.9059116 190.977111,16.7168059 189.146047,14.9101562 C187.314983,13.1035066 185.097395,12.2001953 182.493215,12.2001953 C179.889035,12.2001953 177.671447,13.1075756 175.840383,14.9223633 C174.009319,16.737151 173.093801,18.9221877 173.093801,21.4775391 C173.093801,24.0166143 174.009319,26.197582 175.840383,28.0205078 C177.671447,29.8434336 179.889035,30.7548828 182.493215,30.7548828 C185.097395,30.7548828 187.314983,29.8475026 189.146047,28.0327148 C190.977111,26.2179271 191.892629,24.0328904 191.892629,21.4775391 L191.892629,21.4775391 Z M203.028868,10.8574219 L203.028868,14.5927734 C204.249577,13.1116462 205.559785,11.9967485 206.959532,11.2480469 C208.359278,10.4993452 210.01128,10.125 211.915587,10.125 C213.933826,10.125 215.797414,10.5970005 217.506407,11.5410156 C219.2154,12.4850308 220.537815,13.799308 221.473692,15.4838867 C222.409569,17.1684655 222.877501,18.9384673 222.877501,20.7939453 C222.877501,23.7399236 221.823637,26.2586158 219.71588,28.3500977 C217.608122,30.4415795 215.016188,31.4873047 211.940001,31.4873047 C208.277873,31.4873047 205.307525,29.9980618 203.028868,27.0195312 L203.028868,39.3730469 L208.009337,39.3730469 C208.49762,39.3730469 208.847552,39.4666332 209.059141,39.6538086 C209.270731,39.840984 209.376524,40.0891912 209.376524,40.3984375 C209.376524,40.6914077 209.270731,40.9355459 209.059141,41.1308594 C208.847552,41.3261729 208.49762,41.4238281 208.009337,41.4238281 L198.219298,41.4238281 C197.731014,41.4238281 197.381082,41.3302418 197.169493,41.1430664 C196.957903,40.955891 196.85211,40.7076838 196.85211,40.3984375 C196.85211,40.0891912 196.957903,39.840984 197.169493,39.6538086 C197.381082,39.4666332 197.731014,39.3730469 198.219298,39.3730469 L200.978087,39.3730469 L200.978087,12.9326172 L198.219298,12.9326172 C197.731014,12.9326172 197.381082,12.8349619 197.169493,12.6396484 C196.957903,12.444335 196.85211,12.1920588 196.85211,11.8828125 C196.85211,11.5898423 196.957903,11.3457041 197.169493,11.1503906 C197.381082,10.9550771 197.731014,10.8574219 198.219298,10.8574219 L203.028868,10.8574219 Z M220.802305,20.7939453 C220.802305,18.4339075 219.943753,16.4116295 218.226622,14.7270508 C216.509491,13.042472 214.413971,12.2001953 211.940001,12.2001953 C209.449754,12.2001953 207.342028,13.046541 205.616758,14.7392578 C203.891489,16.4319746 203.028868,18.4501836 203.028868,20.7939453 C203.028868,23.1539832 203.891489,25.1803301 205.616758,26.8730469 C207.342028,28.5657637 209.449754,29.4121094 211.940001,29.4121094 C214.397695,29.4121094 216.489146,28.5698326 218.214415,26.8852539 C219.939684,25.2006752 220.802305,23.1702593 220.802305,20.7939453 L220.802305,20.7939453 Z M240.019599,0.334960938 L240.019599,5.6328125 L236.992255,5.6328125 L236.992255,0.334960938 L240.019599,0.334960938 Z M240.092841,10.8574219 L240.092841,29.9492188 L248.149482,29.9492188 C248.654042,29.9492188 249.012111,30.0428051 249.223701,30.2299805 C249.43529,30.4171559 249.541083,30.665363 249.541083,30.9746094 C249.541083,31.2675796 249.43529,31.5117178 249.223701,31.7070312 C249.012111,31.9023447 248.654042,32 248.149482,32 L229.985419,32 C229.497136,32 229.147204,31.9023447 228.935615,31.7070312 C228.724025,31.5117178 228.618232,31.2675796 228.618232,30.9746094 C228.618232,30.665363 228.724025,30.4171559 228.935615,30.2299805 C229.147204,30.0428051 229.497136,29.9492188 229.985419,29.9492188 L238.04206,29.9492188 L238.04206,12.9326172 L232.060615,12.9326172 C231.572331,12.9326172 231.218331,12.8349619 230.998603,12.6396484 C230.778875,12.444335 230.669013,12.2001968 230.669013,11.9072266 C230.669013,11.5979802 230.774806,11.3457041 230.986396,11.1503906 C231.197985,10.9550771 231.556055,10.8574219 232.060615,10.8574219 L240.092841,10.8574219 Z M260.628494,10.8574219 L260.628494,13.9580078 C262.060793,12.5094329 263.354725,11.5084663 264.51033,10.9550781 C265.665935,10.4016899 266.968005,10.125 268.41658,10.125 C269.979088,10.125 271.403227,10.4586555 272.689041,11.1259766 C273.600504,11.6142603 274.426505,12.4239852 275.167068,13.5551758 C275.907632,14.6863663 276.277908,15.8460227 276.277908,17.0341797 L276.277908,29.9492188 L278.011307,29.9492188 C278.49959,29.9492188 278.849522,30.0428051 279.061111,30.2299805 C279.272701,30.4171559 279.378494,30.665363 279.378494,30.9746094 C279.378494,31.2675796 279.272701,31.5117178 279.061111,31.7070312 C278.849522,31.9023447 278.49959,32 278.011307,32 L272.518143,32 C272.013583,32 271.655513,31.9023447 271.443924,31.7070312 C271.232334,31.5117178 271.126541,31.2675796 271.126541,30.9746094 C271.126541,30.665363 271.232334,30.4171559 271.443924,30.2299805 C271.655513,30.0428051 272.013583,29.9492188 272.518143,29.9492188 L274.227127,29.9492188 L274.227127,17.3759766 C274.227127,15.9274016 273.698161,14.7026417 272.640213,13.7016602 C271.582265,12.7006786 270.166263,12.2001953 268.392166,12.2001953 C267.041248,12.2001953 265.869385,12.4728163 264.876541,13.0180664 C263.883698,13.5633165 262.467696,14.9182834 260.628494,17.0830078 L260.628494,29.9492188 L262.94783,29.9492188 C263.436114,29.9492188 263.786045,30.0428051 263.997635,30.2299805 C264.209224,30.4171559 264.315018,30.665363 264.315018,30.9746094 C264.315018,31.2675796 264.209224,31.5117178 263.997635,31.7070312 C263.786045,31.9023447 263.436114,32 262.94783,32 L256.258377,32 C255.770093,32 255.420162,31.9023447 255.208572,31.7070312 C254.996983,31.5117178 254.891189,31.2675796 254.891189,30.9746094 C254.891189,30.665363 254.996983,30.4171559 255.208572,30.2299805 C255.420162,30.0428051 255.770093,29.9492188 256.258377,29.9492188 L258.577713,29.9492188 L258.577713,12.9326172 L256.844314,12.9326172 C256.356031,12.9326172 256.006099,12.8349619 255.79451,12.6396484 C255.58292,12.444335 255.477127,12.1920588 255.477127,11.8828125 C255.477127,11.5898423 255.58292,11.3457041 255.79451,11.1503906 C256.006099,10.9550771 256.356031,10.8574219 256.844314,10.8574219 L260.628494,10.8574219 Z M302.404382,14.6171875 L302.404382,10.8574219 L307.213952,10.8574219 C307.702236,10.8574219 308.052167,10.9550771 308.263757,11.1503906 C308.475346,11.3457041 308.581139,11.5979802 308.581139,11.9072266 C308.581139,12.2001968 308.475346,12.444335 308.263757,12.6396484 C308.052167,12.8349619 307.702236,12.9326172 307.213952,12.9326172 L304.455163,12.9326172 L304.455163,33.4160156 C304.455163,34.78321 304.162197,36.0039009 303.576257,37.078125 C303.18563,37.7942744 302.534594,38.5348269 301.623132,39.2998047 C300.711669,40.0647825 299.881599,40.6100244 299.132897,40.9355469 C298.384195,41.2610693 297.383229,41.4238281 296.129967,41.4238281 L290.319421,41.4238281 C289.831137,41.4238281 289.481205,41.3302418 289.269616,41.1430664 C289.058026,40.955891 288.952233,40.7076838 288.952233,40.3984375 C288.952233,40.0891912 289.058026,39.836915 289.269616,39.6416016 C289.481205,39.4462881 289.831137,39.3486328 290.319421,39.3486328 L296.20321,39.3730469 C297.407643,39.3730469 298.494058,39.0638052 299.462487,38.4453125 C300.430916,37.8268198 301.232503,36.9235085 301.867272,35.7353516 C302.225347,35.0517544 302.404382,34.1809949 302.404382,33.1230469 L302.404382,26.9707031 C300.207105,29.9817859 297.375102,31.4873047 293.908288,31.4873047 C291.092518,31.4873047 288.663344,30.4415795 286.62069,28.3500977 C284.578037,26.2586158 283.556725,23.7399236 283.556725,20.7939453 C283.556725,17.847967 284.578037,15.3333437 286.62069,13.25 C288.663344,11.1666563 291.092518,10.125 293.908288,10.125 C297.375102,10.125 300.207105,11.6223809 302.404382,14.6171875 L302.404382,14.6171875 Z M302.404382,20.7939453 C302.404382,18.3850791 301.578381,16.3505942 299.926354,14.6904297 C298.274328,13.0302651 296.300877,12.2001953 294.005944,12.2001953 C291.711011,12.2001953 289.741629,13.0343341 288.097741,14.7026367 C286.453852,16.3709393 285.631921,18.4013552 285.631921,20.7939453 C285.631921,23.2028115 286.453852,25.2413654 288.097741,26.909668 C289.741629,28.5779706 291.711011,29.4121094 294.005944,29.4121094 C296.300877,29.4121094 298.274328,28.5779706 299.926354,26.909668 C301.578381,25.2413654 302.404382,23.2028115 302.404382,20.7939453 L302.404382,20.7939453 Z" fill="#EE0E51"></path>
                    <path d="M336.367769,17.7666016 L314.1998,30.1201172 C313.841725,30.3154307 313.573173,30.4130859 313.394136,30.4130859 C313.117442,30.4130859 312.877373,30.3113617 312.673921,30.1079102 C312.47047,29.9044586 312.368745,29.6643894 312.368745,29.3876953 C312.368745,28.9807922 312.645435,28.6227229 313.198824,28.3134766 L332.192964,17.7666016 L313.223238,7.21972656 C312.669849,6.91048022 312.39316,6.55241089 312.39316,6.14550781 C312.39316,5.86881372 312.494884,5.62874451 312.698335,5.42529297 C312.901787,5.22184143 313.141856,5.12011719 313.41855,5.12011719 C313.597587,5.12011719 313.866139,5.21777246 314.224214,5.41308594 L336.367769,17.7666016 Z M0.392578125,17.7666016 L22.5605469,5.41308594 C22.9186216,5.21777246 23.1871736,5.12011719 23.3662109,5.12011719 C23.642905,5.12011719 23.8829742,5.22184143 24.0864258,5.42529297 C24.2898773,5.62874451 24.3916016,5.86881372 24.3916016,6.14550781 C24.3916016,6.55241089 24.1149116,6.91048022 23.5615234,7.21972656 L4.56738281,17.7666016 L23.5371094,28.3134766 C24.0904976,28.6227229 24.3671875,28.9807922 24.3671875,29.3876953 C24.3671875,29.6643894 24.2654633,29.9044586 24.0620117,30.1079102 C23.8585602,30.3113617 23.618491,30.4130859 23.3417969,30.4130859 C23.1627595,30.4130859 22.8942075,30.3154307 22.5361328,30.1201172 L0.392578125,17.7666016 Z" id="Path" fill="#383838"></path>
                </g>
                <g id="designing_" transform="translate(0.000000, 72.000000)">
                    <g id="Rectangle-97">
                        <mask id="mask-2" sketch:name="Mask" fill="white">
                            <use xlink:href="#path-1"></use>
                        </mask>
                        <use id="Mask" fill="#383838" sketch:type="MSShapeGroup" xlink:href="#path-1"></use>
                        <rect fill="#EE0E51" sketch:type="MSShapeGroup" mask="url(#mask-2)" x="-12" y="-6" width="233" height="37"></rect>
                    </g>
                </g>
            </g>
        </g>
    </g>
</svg>