<?xml version="1.0" encoding="UTF-8" standalone="no"?>
<svg width="68px" height="68px" viewBox="0 0 68 68" version="1.1" xmlns="http://www.w3.org/2000/svg" xmlns:xlink="http://www.w3.org/1999/xlink" xmlns:sketch="http://www.bohemiancoding.com/sketch/ns">
    <!-- Generator: Sketch 3.3 (11970) - http://www.bohemiancoding.com/sketch -->
    <title>MazeIcon</title>
    <desc>Created with Sketch.</desc>
    <defs></defs>
    <g id="Page-1" stroke="none" stroke-width="1" fill="none" fill-rule="evenodd" sketch:type="MSPage">
        <g id="Artboard-8" sketch:type="MSArtboardGroup" transform="translate(-338.000000, -299.000000)" fill="#00FFFF">
            <path d="M400.863,361.863 L374.07,361.863 L374.07,350.785 L389.785,350.785 L389.785,346.148 L374.07,346.148 L374.07,314.715 L353.715,314.715 L353.715,319.352 L369.43,319.352 L369.43,361.859 L342.637,361.859 L342.637,346.148 L338,346.148 L338,366.5 L405.5,366.5 L405.5,314.715 L400.863,314.715 L400.863,361.863 Z M338,299 L338,335.07 L353.715,335.07 L353.715,350.785 L358.352,350.785 L358.352,330.43 L342.637,330.43 L342.637,303.637 L385.145,303.637 L385.145,335.066 L389.781,335.066 L389.781,303.637 L405.5,303.637 L405.5,299 L338,299 Z M363.195,349.344 L364.586,349.344 L364.586,342.594 L363.195,342.594 L363.195,349.344 Z M364.586,331.875 L363.195,331.875 L363.195,338.625 L364.586,338.625 L364.586,331.875 Z M365.875,308.48 L365.875,309.871 L372.625,309.871 L372.625,308.48 L365.875,308.48 Z M360.879,357.02 L364.586,357.02 L364.586,353.309 L363.195,353.309 L363.195,355.629 L360.875,355.629 L360.875,357.02 L360.879,357.02 Z M355.16,308.48 L355.16,309.871 L361.91,309.871 L361.91,308.48 L355.16,308.48 Z M353.492,324.195 L353.492,325.586 L358.574,325.586 L358.574,324.195 L353.492,324.195 Z M364.586,324.195 L360.879,324.195 L360.879,325.586 L363.199,325.586 L363.199,327.906 L364.59,327.906 L364.59,324.195 L364.586,324.195 Z M343.332,339.914 L339.625,339.914 L339.625,341.305 L343.332,341.305 L343.332,339.914 Z M347.48,357.02 L351.188,357.02 L351.188,355.629 L348.867,355.629 L348.867,353.309 L347.477,353.309 L347.477,357.02 L347.48,357.02 Z M345.164,341.305 L347.484,341.305 L347.484,343.625 L348.875,343.625 L348.875,339.914 L345.164,339.914 L345.164,341.305 Z M353.492,355.629 L353.492,357.02 L358.574,357.02 L358.574,355.629 L353.492,355.629 Z M348.871,345.926 L347.48,345.926 L347.48,351.008 L348.871,351.008 L348.871,345.926 Z M347.48,325.586 L351.188,325.586 L351.188,324.195 L348.867,324.195 L348.867,321.875 L347.477,321.875 L347.477,325.586 L347.48,325.586 Z M394.629,339.914 L392.309,339.914 L392.309,341.305 L396.02,341.305 L396.02,337.594 L394.629,337.594 L394.629,339.914 Z M403.875,308.48 L400.168,308.48 L400.168,309.871 L403.875,309.871 L403.875,308.48 Z M394.629,333.625 L396.02,333.625 L396.02,326.875 L394.629,326.875 L394.629,333.625 Z M396.02,309.871 L398.34,309.871 L398.34,308.48 L394.629,308.48 L394.629,312.188 L396.02,312.188 L396.02,309.871 Z M348.871,314.492 L347.48,314.492 L347.48,319.574 L348.871,319.574 L348.871,314.492 Z M351.191,308.48 L347.484,308.48 L347.484,312.188 L348.875,312.188 L348.875,309.867 L351.195,309.867 L351.195,308.48 L351.191,308.48 Z M378.914,333.625 L380.305,333.625 L380.305,326.875 L378.914,326.875 L378.914,333.625 Z M380.305,316.16 L378.914,316.16 L378.914,322.91 L380.305,322.91 L380.305,316.16 Z M378.914,341.305 L382.625,341.305 L382.625,339.914 L380.305,339.914 L380.305,337.594 L378.914,337.594 L378.914,341.305 Z M376.594,309.871 L378.914,309.871 L378.914,312.191 L380.305,312.191 L380.305,308.484 L376.594,308.484 L376.594,309.871 Z M390.008,339.914 L384.926,339.914 L384.926,341.305 L390.008,341.305 L390.008,339.914 Z M394.629,322.906 L396.02,322.906 L396.02,316.156 L394.629,316.156 L394.629,322.906 Z" id="MazeIcon" sketch:type="MSShapeGroup"></path>
        </g>
    </g>
</svg>