<?xml version="1.0" encoding="UTF-8" standalone="no"?>
<svg width="105px" height="41px" viewBox="0 0 105 41" version="1.1" xmlns="http://www.w3.org/2000/svg" xmlns:xlink="http://www.w3.org/1999/xlink" xmlns:sketch="http://www.bohemiancoding.com/sketch/ns">
    <!-- Generator: Sketch 3.3 (11970) - http://www.bohemiancoding.com/sketch -->
    <title>QueIcon</title>
    <desc>Created with Sketch.</desc>
    <defs></defs>
    <g id="Page-1" stroke="none" stroke-width="1" fill="none" fill-rule="evenodd" sketch:type="MSPage">
        <g id="Artboard-8" sketch:type="MSArtboardGroup" transform="translate(-333.000000, -267.000000)" stroke="#34495E" fill="#FFFFFF">
            <g id="QueIcon" sketch:type="MSLayerGroup" transform="translate(333.484419, 267.489933)">
                <path d="M34.7089124,36.9023438 L32.2675062,39.8564453 L26.725514,35.6328125 C25.3908719,36.365238 23.9463877,36.9511697 22.3920179,37.390625 C20.8376482,37.8300803 19.1408878,38.0498047 17.3016859,38.0498047 C11.7352518,38.0498047 7.37331626,36.2269062 4.21574838,32.5810547 C1.43253134,29.0328599 0.0409436969,24.5895449 0.0409436969,19.2509766 C0.0409436969,14.4006919 1.24535874,10.2503428 3.65422495,6.79980469 C6.74668833,2.37269922 11.3202103,0.159179688 17.3749281,0.159179688 C23.7063399,0.159179688 28.3937931,2.19366455 31.4374281,6.26269531 C33.813742,9.43653931 35.0018812,13.4973711 35.0018812,18.4453125 C35.0018812,20.756522 34.7170533,22.9781794 34.147389,25.1103516 C33.2847545,28.3655762 31.8280633,31.0185444 29.7772718,33.0693359 L34.7089124,36.9023438 Z M20.7196546,33.496582 C21.5985653,33.358235 22.3635316,33.085614 23.0145765,32.6787109 L19.0839124,29.6025391 L21.5253187,26.5996094 L26.2128187,30.2373047 C27.6939459,28.5445879 28.6989814,26.648448 29.2279554,24.5488281 C29.7569294,22.4492083 30.0214124,20.4391372 30.0214124,18.5185547 C30.0214124,14.3030388 28.9187217,10.9095181 26.713307,8.33789062 C24.5078923,5.76626318 21.4927857,4.48046875 17.6678968,4.48046875 C13.7941795,4.48046875 10.7261764,5.71336658 8.46379526,8.17919922 C6.20141416,10.6450319 5.07024057,14.4413806 5.07024057,19.5683594 C5.07024057,23.881532 6.15665549,27.3157424 8.32951792,29.8710938 C10.5023803,32.4264451 13.6883836,33.7041016 17.8876234,33.7041016 C18.896743,33.7041016 19.840744,33.6349291 20.7196546,33.496582 L20.7196546,33.496582 Z M46.0614515,1.13574219 L46.0614515,23.3037109 C46.0614515,25.9078906 46.5497279,28.0725825 47.5262953,29.7978516 C48.9748702,32.4020313 51.416252,33.7041016 54.850514,33.7041016 C58.9683731,33.7041016 61.7678243,32.296238 63.2489515,29.4804688 C64.0464815,27.9505132 64.4452406,25.8916145 64.4452406,23.3037109 L64.4452406,1.13574219 L69.3768812,1.13574219 L69.3768812,21.2773438 C69.3768812,25.6881731 68.7828116,29.0816938 67.5946546,31.4580078 C65.4136541,35.7874565 61.2958568,37.9521484 55.241139,37.9521484 C49.1864212,37.9521484 45.0767618,35.7874565 42.9120374,31.4580078 C41.7238805,29.0816938 41.1298109,25.6881731 41.1298109,21.2773438 L41.1298109,1.13574219 L46.0614515,1.13574219 Z M77.3602796,1.13574219 L103.507741,1.13574219 L103.507741,5.53027344 L82.0966078,5.53027344 L82.0966078,16.4189453 L101.896412,16.4189453 L101.896412,20.5693359 L82.0966078,20.5693359 L82.0966078,32.7275391 L103.873952,32.7275391 L103.873952,37 L77.3602796,37 L77.3602796,1.13574219 Z" id="QUE" sketch:type="MSShapeGroup"></path>
            </g>
        </g>
    </g>
</svg>